<svg width="319" height="400" viewBox="0 0 319 400" fill="none" xmlns="http://www.w3.org/2000/svg">
<path d="M51.6651 4.02622C65.3998 2.26646 71.3762 12.382 74.9107 23.9288C80.2442 18.4547 85.4638 15.2644 93.4241 16.7989C100.034 18.0732 104.956 18.3639 110.824 22.0065C135.972 19.9069 161.835 20.0248 187.063 20.6019C206.03 21.0354 282.272 23.9943 293.136 36.261C295.083 38.4609 294.93 40.8783 293.417 43.2301C290.023 48.501 285.311 53.3383 281.283 58.1555C275.813 64.7954 270.408 71.4895 265.069 78.2371L201.361 158.471C197.865 162.863 193.793 168.217 190.278 172.396C184.383 179.401 182.567 178.866 178.748 187.841C172.71 202.011 172.867 217.738 172.398 232.981C171.732 254.522 171.666 276.074 172.197 297.615C172.453 311.705 171.318 339.486 180.974 349.775C194.251 350.771 210.186 353.832 222.709 358.442C226.656 359.895 233.481 363.663 234.704 367.947C238.929 382.769 227.681 388.122 216.103 392.443C214.587 392.978 211.932 393.747 210.197 394.201C175.342 402.703 133.046 402.886 100.019 387.782C92.3597 384.278 87.4846 371.88 92.5625 366.259C103.764 353.865 130.338 352.455 145.89 349.405C153.987 339.738 153.547 324.477 153.916 312.434C154.199 303.206 154.202 293.745 154.275 284.503C154.446 268.586 154.347 252.666 153.982 236.752C153.678 221.571 154.204 203.512 148.315 189.254C146.945 186.541 145.052 181.115 142.642 179.123C136.134 173.751 131.815 167.342 126.658 160.689L68.1181 86.6899C57.2121 73.0314 44.0871 57.1288 33.8954 43.1723C31.0727 46.1532 28.477 48.3153 24.7814 50.0689C19.8353 49.5892 11.3046 47.4369 6.99597 44.976C-3.89323 38.7575 1.19052 23.7907 2.40544 14.1091C2.71191 11.6665 -1.23272 7.23487 0.395587 5.66258C3.24503 2.9109 9.60266 5.11116 12.0464 7.5787C17.0686 12.2923 18.5878 18.7813 19.0979 25.407C29.1171 3.69156 29.2734 5.92402 51.6651 4.02622Z" fill="black"/>
<path d="M184.086 353.033C193.596 353.78 207.037 356.179 216.03 358.998C249.878 369.613 223.32 381.854 205.141 385.786C176.924 391.89 148.855 391.484 120.713 385.651C112.489 383.944 100.486 380.235 95.0823 373.333C92.0187 369.199 97.1654 364.93 100.43 363.297C108.549 358.613 130.059 354.172 139.801 353.344L140.793 353.301C140.65 356.947 112.223 367.251 108.042 369.723C115.416 368.544 124.997 364.82 131.98 362.033C133.669 361.224 135.066 360.752 136.819 360.129L138.02 359.741C138.728 360.265 138.433 359.99 138.862 360.774C140.793 364.304 141.971 364.802 145.321 366.566C156.354 370.279 168.558 370.62 179.612 366.746C182.629 365.688 186.558 364.219 187.016 360.499C187.136 359.544 187.005 359.785 187.462 358.914C195.049 362.506 208.549 368.17 217.033 369.261L217.568 369.327C207.85 365.45 192.288 359.364 184.086 353.033Z" fill="#FCECD9"/>
<path d="M100.43 363.296C108.549 358.613 130.058 354.171 139.8 353.344C136.949 354.739 135.563 353.882 133.3 356.214C132.31 356.332 132.598 356.343 131.599 356.222C126.283 356.848 117.733 359.51 112.466 361.095C110.997 361.538 105.965 363.611 105.164 363.538C103.3 363.138 103.475 363.135 102.022 364.588L101.942 364.036L102.765 362.919C101.986 363.04 101.207 363.164 100.43 363.296Z" fill="#FCECD9"/>
<path d="M105.164 363.539L105.296 363.133C109.169 360.145 127.707 356.154 133.236 355.15L133.274 355.495L131.599 356.223C126.283 356.849 117.733 359.511 112.466 361.097C110.997 361.54 105.965 363.612 105.164 363.539Z" fill="black"/>
<path d="M137.094 386.34C124.998 384.89 108.02 382.147 98.7076 373.759C94.6235 370.079 98.3565 366.238 101.942 364.037L102.022 364.59C85.3886 377.918 130.257 384.71 137.877 385.791L137.094 386.34Z" fill="black"/>
<path d="M136.817 360.128L138.017 359.74C138.725 360.264 138.43 359.989 138.86 360.773C140.79 364.303 141.968 364.801 145.318 366.565C145.374 367.06 145.441 367.975 145.576 368.411C144.514 368.341 142.531 367.766 141.435 367.488C139.518 366.353 136.027 364.123 136.135 361.578L136.817 360.128Z" fill="#FCECD9"/>
<path d="M136.135 361.578C140.183 366.734 140.913 365.555 145.576 368.411C144.514 368.341 142.531 367.766 141.435 367.488C139.518 366.353 136.027 364.123 136.135 361.578Z" fill="black"/>
<path d="M136.82 360.129L136.139 361.579C136.03 364.124 139.521 366.354 141.438 367.489L140.516 368.569C139.539 367.61 134.593 364.805 133.128 363.941C132.438 363.197 132.414 362.97 131.98 362.033C133.67 361.224 135.067 360.751 136.82 360.129Z" fill="#FCECD9"/>
<path d="M133.129 363.939C134.593 364.804 139.539 367.608 140.517 368.568L140.016 368.736C136.908 367.751 134.7 366.861 133.129 363.939Z" fill="black"/>
<path d="M137.876 385.789C138.919 385.815 139.762 385.697 140.597 386.261C139.419 386.752 138.396 386.481 137.094 386.338L137.876 385.789Z" fill="#FCECD9"/>
<path d="M101.004 370.502C101.523 370.392 101.553 370.633 102.06 371.402C103.502 373.592 105.336 374.647 107.68 375.782C115.652 379.648 125.074 381.109 133.733 382.567C136.582 383.046 146.975 383.574 148.733 384.504C140.432 385.767 103.048 379.773 101.004 370.502Z" fill="black"/>
<path d="M223.919 371.52C223.93 377.4 197.83 383.233 192.287 383.713C190.331 383.885 188.083 384.185 186.113 384.39C186.102 383.332 189.387 383.321 190.624 383.127C200.027 381.655 217.449 378.579 223.919 371.52Z" fill="black"/>
<path d="M148.574 387.03C150.167 386.843 151.775 386.924 153.372 387.008C160.218 387.356 167.051 387.26 173.905 387.22L174.242 387.784C169.892 388.253 151.799 389.153 148.574 387.03Z" fill="black"/>
<path d="M191.078 355.123C196.545 355.379 214.406 359.052 218.654 361.622C217.518 361.619 213.835 360.769 212.766 360.301C207.262 357.877 195.875 357.661 191.078 355.123Z" fill="black"/>
<path d="M148.902 369.804C151.353 369.27 156.696 370.862 159.812 371.155C163.14 371.474 172.833 369.866 174.59 370.533C168.728 372.715 154.675 372.254 148.902 369.804Z" fill="black"/>
<path d="M223.491 376.119L223.956 376.624C221.865 377.525 219.5 378.957 216.919 380.033C210.408 382.754 205.795 383.483 199.156 384.852C199.405 384.288 200.372 383.973 200.969 383.83C208.288 382.11 216.545 380.242 223.081 376.368L223.491 376.119Z" fill="black"/>
<path d="M154.352 372.688C155.882 372.575 169.917 373.076 170.854 373.483C164.776 374.354 160.236 374.501 154.352 372.688Z" fill="black"/>
<path d="M226.688 374.042C228.061 372.346 228.819 371.442 228.643 369.219C227.962 368.143 227.812 368.022 226.962 367.125L227.09 366.393C230.664 368.135 229.489 371.808 227.317 374.203L226.688 374.042Z" fill="black"/>
<path d="M223.492 376.119C224.301 375.42 225.726 374.625 226.689 374.043L227.319 374.204C226.246 374.995 225.067 375.91 223.957 376.624L223.492 376.119Z" fill="#FCECD9"/>
<path d="M114.505 27.0758C113.837 26.0648 113.2 25.5665 113.34 24.6771C115.597 24.3018 119.944 24.2542 122.361 24.1619C128.554 23.9023 134.75 23.7295 140.947 23.6438C164.697 22.9682 188.461 23.274 212.184 24.5596C225.901 25.2234 239.939 26.1523 253.52 28.1684C265.461 29.941 279.239 31.5799 289.953 37.4293C292.93 39.0543 291.341 41.6299 289.228 43.1073L288.785 42.3585C297.1 32.3013 238.606 28.186 233.627 27.6983C232.224 27.5606 229.247 27.1117 228.05 27.8111C228.83 28.3171 236.717 28.9703 238.178 29.075C244.242 29.51 285.786 33.8633 287.913 39.627C286.167 43.9513 263.26 47.1651 258.082 47.5016C254.659 47.7239 246.713 46.4207 243.037 45.9765C235.216 44.9681 227.369 44.2025 219.5 43.6811C184.928 41.4801 153.196 40.7452 118.556 43.275C118.157 37.6695 117.157 32.5144 114.725 27.4291L114.505 27.0758Z" fill="#FCECD9"/>
<path d="M114.504 27.0765C117.82 25.5807 138.941 24.9715 142.535 25.8484C141.242 26.2376 134.039 26.3958 132.3 26.4566C126.34 26.6649 120.681 26.9227 114.724 27.4298L114.504 27.0765Z" fill="black"/>
<path d="M213.077 28.6777L213.282 28.8747C213.699 30.7663 210.283 38.7057 209.305 40.7906L208.961 40.3252C209.704 37.0617 211.791 31.7883 213.077 28.6777Z" fill="black"/>
<path d="M225.025 28.5684C225.402 28.8803 225.179 28.6584 225.585 29.3307C224.992 32.3537 223.018 36.9435 221.81 39.8347L221.627 39.6461C221.429 38.3455 224.34 30.2505 225.025 28.5684Z" fill="black"/>
<path d="M216.631 29.7383C217.235 31.7522 214.287 38.3038 213.302 40.351C212.702 38.2778 215.657 31.8616 216.631 29.7383Z" fill="black"/>
<path d="M208.178 29.3398C209.152 31.7191 206.439 37.6696 205.428 40.2737C204.758 38.749 207.523 31.3907 208.178 29.3398Z" fill="black"/>
<path d="M168.571 216.084C168.729 207.091 169.633 199.787 172.573 191.226C173.298 189.113 174.324 185.32 176.389 184.159C176.348 186.173 174.214 190.995 173.481 193.218C172.65 195.711 172.017 198.267 171.577 200.859C169.834 211.61 169.758 226.128 169.289 237.252C169.201 248.68 168.959 259.972 168.974 271.415C168.981 277.921 169.406 286.434 169.014 292.637C169.304 296.218 169.34 299.792 169.391 303.38C169.531 313.739 169.985 323.944 170.94 334.255C169.245 335.342 168.165 335.95 166.393 336.869L166.594 337.169L166.44 338.909L166.356 339.319C169.08 340.615 169.542 340.531 172.515 339.853C173.298 343.288 175.352 345.478 172.632 348.334C168.245 352.936 151.885 353.053 152.845 344.159C152.981 342.896 153.907 339.586 154.928 338.74C156.565 339.355 157.843 340.26 159.168 338.92L159.447 337.224C158.89 335.558 156.642 336.781 155.862 332.581C156.781 327.481 156.803 314.244 156.92 308.81C157.308 289.77 157.407 270.723 157.22 251.675C157.18 242.759 156.982 233.847 156.631 224.938C156.173 212.606 155.972 200.01 151.318 188.414C150.744 186.982 149.7 185.569 149.305 184.111L150.055 184.199C155.184 189.395 157.239 207.399 157.619 214.514C157.781 217.527 158.022 222.379 159.003 225.096C159.311 213.129 159.143 201.401 156.016 189.831C155.737 188.794 155.975 188.769 156.547 188.088C158.286 186.912 168.542 187.286 170.354 188.388C170.625 189.743 169.6 190.958 169.351 192.427C169.582 195.488 167.927 205.839 167.817 210.306C167.887 211.808 167.828 217.75 168.081 218.453L168.571 216.084Z" fill="#FCECD9"/>
<path d="M167.4 242.988C168.813 242.065 168.586 239.594 169.194 237.558L169.289 237.254C169.201 248.682 168.96 259.974 168.974 271.417C168.982 277.923 169.406 286.436 169.015 292.639C168.502 291.002 168.952 289.97 167.374 289.062C166.235 285.847 166.484 246.609 167.4 242.988Z" fill="#FCECD9"/>
<path d="M167.4 242.988C168.769 245.83 166.58 278.7 167.612 284.306C167.748 285.038 167.652 288.414 167.374 289.062C166.235 285.847 166.484 246.61 167.4 242.988Z" fill="black"/>
<path d="M157.218 251.678L158.847 251.886C158.379 253.022 158.309 299.242 158.203 304.511L158.617 305.1C157.749 306.312 157.401 308.022 158.448 309.227C157.782 310.849 156.892 330.622 157.441 332.518L155.859 332.584C156.778 327.484 156.8 314.247 156.918 308.813C157.306 289.773 157.405 270.725 157.218 251.678Z" fill="#FCECD9"/>
<path d="M156.547 188.089C158.286 186.914 168.542 187.288 170.355 188.39C170.626 189.745 169.6 190.96 169.351 192.428L169.128 192.425C167.744 191.923 159.381 191.649 158.001 192.253C157.916 191.176 157.968 191.656 157.158 190.572C156.946 189.528 157.019 189.726 157.206 188.646L157.265 188.327L156.547 188.089Z" fill="#FCECD9"/>
<path d="M157.16 190.572C159.712 189.972 161.891 190.452 164.502 189.906C163.085 189.646 158.932 189.291 158.163 188.83C160.038 188.452 160.65 188.573 162.579 188.753C164.417 188.775 167.039 188.401 168.101 189.357L167.914 189.749C166.732 189.719 166.274 189.467 165.585 190.034C166.424 190.323 166.501 190.367 167.372 190.459C165.08 191.217 159.331 191.407 157.16 190.572Z" fill="black"/>
<path d="M158.851 251.885C159.02 252.09 159.185 252.291 159.353 252.493C159.489 269.618 159.576 286.846 159.1 303.96C159.089 304.443 158.899 304.839 158.621 305.099L158.207 304.509C158.313 299.24 158.383 253.02 158.851 251.885Z" fill="black"/>
<path d="M157.445 332.516C156.895 330.619 157.785 310.847 158.452 309.225C159.294 312.615 158.258 328.111 157.877 332.333L157.445 332.516Z" fill="black"/>
<path d="M158 192.253C159.38 191.649 167.743 191.924 169.128 192.425C166.224 193.04 160.816 193.26 158 192.253Z" fill="black"/>
<path d="M167.817 210.309C167.887 211.81 167.828 217.753 168.081 218.456L168.571 216.087C168.67 218.741 168.67 219.331 168.176 221.941C167.202 219.851 167.458 212.7 167.817 210.309Z" fill="black"/>
<path d="M156.187 344.549C158.79 343.714 159.413 347.676 162.902 348.192L163.1 347.859L161.438 346.431C162.36 345.497 164.557 345.131 165.821 344.875C166.743 344.688 167.311 345.819 167.985 346.65L168.398 346.262L169.947 346.024L170.324 346.412C168.706 352.337 154.605 349.964 154.847 345.684L156.187 344.549Z" fill="#FCECD9"/>
<path d="M169.149 347.039L169.449 347.087L169.401 347.508C166.109 349.891 162.085 349.584 158.435 348.313L157.984 347.812L158.149 347.522L158.53 347.651C162.609 349.038 165.238 348.943 169.149 347.039Z" fill="black"/>
<path d="M167.167 296.227C167.379 296.435 167.595 296.644 167.808 296.853C168.287 306.453 169.119 324.439 169.32 333.234L168.815 332.839C167.559 328.976 167.123 301.594 167.167 296.227Z" fill="black"/>
<path d="M161.13 196.576L160.918 196.269C162.298 196.049 164.825 195.639 166.044 196.261C165.4 196.928 165.645 196.73 164.84 197.173L164.444 197.517C165.067 197.448 165.645 197.411 166.271 197.484C167.176 198.861 166.938 200.359 165.363 201.095C163.701 201.043 163.433 200.882 161.819 200.326C161.24 199.443 161.467 199.919 161.46 198.674L161.185 198.187L161.13 196.576Z" fill="#FCECD9"/>
<path d="M161.188 198.187C162.616 197.949 164.325 197.561 165.559 198.41C164.607 199.337 162.718 198.85 161.462 198.674L161.188 198.187Z" fill="black"/>
<path d="M161.13 196.576L160.918 196.269C162.298 196.049 164.825 195.639 166.044 196.261C165.4 196.928 165.645 196.73 164.84 197.173C163.818 196.891 162.222 196.726 161.13 196.576Z" fill="black"/>
<path d="M158.287 231.48C159.788 233.106 159.074 241.411 158.902 243.831C158.079 241.341 157.826 233.985 158.287 231.48Z" fill="black"/>
<path d="M167.276 228.539L167.84 229.114C168.122 231.622 167.924 234.705 167.833 237.276C166.467 236.214 167.177 230.26 167.276 228.539Z" fill="black"/>
<path d="M158.926 194.069C160.764 193.853 165.359 193.432 166.597 194.655C163.964 195.039 161.24 195.438 158.926 194.069Z" fill="black"/>
<path d="M39.8945 46.3984C42.272 47.2366 43.4412 47.5255 45.0596 49.4324L45.8842 48.8799C47.8698 48.5456 55.2875 51.2057 56.1659 53.5836C55.4109 55.0054 53.5859 56.377 52.3135 57.4919L51.7251 58.1031C56.3812 64.7038 62.8835 72.4583 67.9731 78.7731L86.9943 102.657C101.59 120.935 115.115 141.593 133.49 156.309C140.055 161.566 147.492 165.448 155.828 166.851C169.112 169.086 180.892 165.217 191.686 157.435C206.581 146.7 217.405 130.722 228.661 116.472L256.35 81.6441L269.041 65.8312C270.568 63.9382 273.999 59.8954 275.174 58.036L274.647 57.5674C274.57 57.5132 274.497 57.4586 274.423 57.4041C272.519 55.3294 269.48 53.6147 267.027 52.0201C268.733 51.6345 274.749 50.0003 275.866 50.5975L276.06 51.2186L276.448 50.9578C278.451 49.6642 278.466 49.417 280.93 49.0223C281.666 49.4053 281.41 49.1391 281.768 49.7455C283.277 48.1783 284.793 47.7177 286.814 47.1062C256.079 83.636 227.522 122.291 197.23 159.21C194.839 162.121 182.488 179.998 178.204 177.768C178.574 176.996 183.495 174.389 184.663 172.799C188.852 167.079 194.051 161.049 197.801 155.129L198.021 154.772C178.848 173.122 153.537 175.575 133.341 158.916C131.607 157.486 129.629 156.117 127.757 154.866C133.402 160.715 137.544 167.907 142.803 174.004C143.519 174.835 147.037 177.16 148.097 177.955L147.532 178.197C140.758 175.926 135.008 166.679 130.566 161.081L106.752 130.906C84.8079 103.325 61.1215 74.3774 39.8945 46.3984Z" fill="#FCECD9"/>
<path d="M280.93 49.0215C281.666 49.4045 281.41 49.1383 281.769 49.7447C279.363 53.1785 277.294 55.159 275.174 58.0352L274.647 57.5665C274.57 57.5124 274.497 57.4578 274.424 57.4032C272.52 55.3286 269.481 53.6139 267.027 52.0192C268.734 51.6337 274.75 49.9995 275.866 50.5967L276.06 51.2177L276.449 50.957C278.452 49.6634 278.466 49.4162 280.93 49.0215Z" fill="#FCECD9"/>
<path d="M280.932 49.0215C281.668 49.4045 281.411 49.1383 281.77 49.7447C279.365 53.1785 277.296 55.159 275.176 58.0352L274.648 57.5665C276.157 55.1942 280.313 50.7128 280.932 49.0215Z" fill="black"/>
<path d="M45.8828 48.8802C47.8685 48.5458 55.2861 51.206 56.1645 53.5838C55.4095 55.0056 53.5846 56.3773 52.3122 57.4922C50.5784 55.1891 47.138 51.1628 45.8828 48.8802Z" fill="#FCECD9"/>
<path d="M45.8832 48.8789C47.1384 51.1615 50.5788 55.1878 52.3126 57.491L51.7241 58.1021C49.4737 55.1311 47.2881 52.5259 45.0586 49.4315L45.8832 48.8789Z" fill="black"/>
<path d="M47.207 7.14028C49.977 7.05789 57.3361 5.86496 59.5345 6.6478L59.5601 6.90667C43.1686 11.7755 43.9705 18.0236 38.2035 31.4389C36.5953 34.8625 30.7914 45.3123 26.7179 45.7839L26.4033 45.4478L26.6703 44.3819L26.3334 43.9363C25.329 44.1307 25.6783 43.9953 24.8373 44.5811C23.5107 43.888 22.8362 43.0246 22.7516 41.5109C23.0984 41.0444 23.3887 40.6431 23.7216 40.1612C22.5491 39.5794 21.8069 39.5186 21.4975 38.6175L22.0841 37.8291C23.7897 37.6164 22.2881 39.1008 23.7359 37.7976L23.6787 36.8163L23.2057 36.7116L22.3316 37.2781C20.9992 35.1364 22.8124 35.9357 21.2247 34.9969L20.5162 35.0061C19.7037 35.0097 19.6045 35.0174 18.8418 34.6802L18.4701 35.0991C18.8982 36.2334 19.7272 36.3905 20.551 37.2788C19.1453 38.6387 19.5529 38.359 18.7737 40.062C17.8506 39.8104 18.0992 39.8976 17.2644 39.4384C16.4486 40.4384 16.3376 41.118 15.9532 42.3395C14.8799 42.8986 14.4453 42.7357 13.3069 42.0993C13.9122 40.4589 17.1355 39.6123 17.643 37.7695L17.1864 37.5443C14.3948 38.6409 9.67864 44.5826 6.64062 41.4362C7.86543 40.6453 9.15322 40.5076 10.5 39.943C13.6888 38.6065 15.8656 36.199 17.8015 33.421C22.1167 25.1139 24.898 14.6334 32.0308 9.461C33.1831 8.63604 34.1249 7.89677 35.4171 7.99819L35.5467 8.7199C35.6763 8.70964 35.8055 8.69902 35.9352 8.68876C37.4939 7.46213 42.5542 7.15786 44.72 7.25819L47.207 7.14028Z" fill="#FCECD9"/>
<path d="M33.5061 34.289C34.6188 33.0807 34.5306 31.6091 36.4211 30.459C37.7253 30.6036 37.1127 30.3711 38.2035 31.4381C36.5953 34.8617 30.7914 45.3115 26.7179 45.7831L26.4033 45.447L26.6703 44.3811L26.3334 43.9355C25.329 44.1299 25.6783 43.9944 24.8373 44.5803C23.5107 43.8871 22.8362 43.0237 22.7516 41.51C23.0984 41.0435 23.3887 40.6422 23.7216 40.1604C22.5491 39.5785 21.8069 39.5177 21.4975 38.6166L22.0841 37.8283C23.7897 37.6155 22.2881 39.1 23.7359 37.7968L23.6787 36.8155L23.2057 36.7108L22.3316 37.2772C20.9992 35.1356 22.8124 35.9349 21.2247 34.9961L20.5162 35.0052C19.7037 35.0089 19.6045 35.0166 18.8418 34.6793L18.4701 35.0982C18.8982 36.2326 19.7272 36.3897 20.551 37.278C19.1453 38.6379 19.5529 38.3581 18.7737 40.0611C17.8506 39.8096 18.0992 39.8967 17.2644 39.4376C16.4486 40.4375 16.3376 41.1171 15.9532 42.3386C14.8799 42.8978 14.4453 42.7348 13.3069 42.0984C13.9122 40.4581 17.1355 39.6115 17.643 37.7686L17.1864 37.5434C14.3948 38.6401 9.67864 44.5817 6.64062 41.4353C7.86543 40.6444 9.15322 40.5067 10.5 39.9421C13.6888 38.6056 15.8656 36.1981 17.8015 33.4201C18.7711 34.1315 19.1303 34.1118 20.2972 34.3231C22.1273 33.6914 24.2485 32.5007 25.8464 32.7888C26.682 33.5479 26.6032 33.5508 27.0078 34.6288L27.8119 35.1942C27.5424 37.0861 27.3974 37.2798 26.5695 39.052C26.8237 39.7547 26.5948 39.5218 27.18 39.8176C28.5 38.7214 27.1767 37.7774 28.642 36.8181L29.4593 37.1608L29.7127 37.1857C30.776 35.7555 31.6797 34.5863 33.5061 34.289Z" fill="#FCECD9"/>
<path d="M27.0084 34.6289L27.8125 35.1943C27.543 37.0862 27.398 37.2799 26.5701 39.0521C26.8242 39.7548 26.5954 39.5219 27.1805 39.8178C28.5005 38.7215 27.1772 37.7775 28.6426 36.8182L29.4598 37.1609C29.555 38.0913 29.4045 37.6596 29.9186 38.4538C31.1698 38.5014 31.6927 38.3923 32.9035 38.2085C33.1262 39.133 33.113 38.6603 32.7014 39.6383C31.7362 40.1531 31.1918 39.9554 30.0797 39.8262L29.6371 39.7716L30.8051 40.3597C31.2298 41.2868 31.1416 40.7979 30.8516 41.8807C29.0556 42.7437 29.201 43.1465 27.7155 44.305L27.1018 44.1879C26.1747 42.8232 26.212 42.8678 24.6639 42.7455L24.7422 42.2307C25.6283 41.546 25.8147 41.52 26.2896 40.4955C24.7107 40.1004 25.245 40.5124 24.3047 39.5622L24.3406 38.724C25.7697 36.429 24.4698 38.6826 26.3508 37.7585C26.2504 36.1671 26.0253 37.7629 24.5167 36.1785C25.1278 35.5557 26.1952 35.0771 27.0084 34.6289Z" fill="black"/>
<path d="M33.5082 34.2891C33.5309 35.3897 33.5222 35.5421 34.1033 36.4765L34.0168 37.4658C32.4438 37.9148 32.0824 36.2125 31.4255 37.267C31.2318 37.5783 30.881 37.6837 30.5204 37.8382L29.7148 37.1857C30.7782 35.7555 31.6818 34.5864 33.5082 34.2891Z" fill="black"/>
<path d="M44.7184 7.25854L47.2054 7.14062C46.684 8.08165 46.3625 8.38227 46.4552 9.42729L47.4079 9.99704L47.4592 10.4082C46.5456 11.268 46.1337 11.9095 45.0385 12.2255C44.8949 11.019 45.1761 11.3254 44.5431 10.7539C43.8576 11.0812 43.1645 11.3928 42.4648 11.6883C40.1909 8.67775 42.6017 8.22483 44.7184 7.25854Z" fill="#FCECD9"/>
<path d="M32.0312 9.46043C33.1836 8.63548 34.1253 7.89621 35.4175 7.99763L35.5471 8.71933C34.828 9.56333 34.1187 10.4161 33.4197 11.2769L33.1198 11.2407C32.7874 10.493 32.7251 10.5054 32.5838 9.72003L32.0312 9.46043Z" fill="#FCECD9"/>
<path d="M66.1213 42.5729C69.5072 34.6854 75.7571 23.4956 84.0565 19.9578C85.2033 19.469 86.9671 18.792 88.1897 19.2196C87.8232 20.0244 87.7573 20.094 87.2783 20.8399C88.6353 20.7813 89.0077 20.2873 90.0608 19.2478C91.7425 18.8465 95.581 19.4803 96.782 20.5766L96.3166 21.6714L96.8237 21.9036C97.2217 21.1552 97.1452 21.3536 97.3682 20.5894C101.849 20.7703 105.14 21.7318 109.071 23.872L109.655 24.1862L110.004 24.3799C89.1256 21.4133 87.7444 46.6339 82.2576 49.4446L81.6871 49.152L81.5022 47.7346L81.0049 47.4194C80.9332 48.1952 80.9376 48.3886 80.6699 49.1205L79.7563 49.0799C79.5776 48.5918 79.3909 48.107 79.1957 47.6251L78.5418 47.479C78.4063 48.1608 78.4228 48.0037 78.0921 48.6401C76.581 49.2018 77.317 49.1641 75.8113 48.8565C75.651 48.2655 75.5089 47.7866 75.3134 47.2062L74.7769 47.2868L74.6777 48.3501C73.4892 48.6738 74.0303 48.7335 72.9919 48.3139L72.8707 47.0814L72.4182 46.9056C71.8184 47.6621 71.7843 47.7104 71.0341 48.3117L70.3025 48.1747L69.7899 46.9777C67.5739 46.7504 67.155 48.4592 64.4388 47.0118C64.3938 45.7727 65.5241 43.85 66.1213 42.5729Z" fill="#FCECD9"/>
<path d="M66.1213 42.5755C67.8814 42.1031 68.1312 41.7241 69.2439 40.2987L69.9162 40.1797C71.2922 42.0625 71.4119 44.838 73.1479 45.3089L73.6155 45.0632C75.5587 44.0581 76.1467 43.5626 78.2536 44.1467C79.1994 44.9024 79.299 44.7845 79.7139 45.8171C78.9464 45.9742 78.7333 46.0214 77.9464 46.0946C77.9204 47.0466 77.8314 46.5706 78.5418 47.4816C78.4063 48.1634 78.4228 48.0063 78.0921 48.6427C76.581 49.2044 77.317 49.1667 75.8113 48.8591C75.651 48.2681 75.5089 47.7892 75.3134 47.2088L74.7769 47.2894L74.6777 48.3527C73.4892 48.6764 74.0303 48.7361 72.9919 48.3165L72.8707 47.084L72.4182 46.9082C71.8184 47.6647 71.7843 47.713 71.0341 48.3143L70.3025 48.1773L69.7899 46.9804C67.5739 46.753 67.155 48.4618 64.4388 47.0144C64.3938 45.7753 65.5241 43.8526 66.1213 42.5755Z" fill="#FCECD9"/>
<path d="M57.2919 9.92936C59.7506 9.34021 61.0417 9.2344 63.5408 9.48339C67.2716 11.8195 74.5079 23.1949 72.1488 27.0176C72.0063 27.2446 71.8584 27.4687 71.7054 27.6888L71.4004 28.2754C67.8102 33.5675 64.8209 41.3461 61.985 45.2589C61.2581 46.7953 61.8033 46.3805 60.614 46.9575L59.193 46.8594L58.1491 46.855C57.6899 46.5386 56.8349 46.1311 56.7394 45.6192C55.4607 38.7812 54.3667 32.6832 52.2378 26.0052C52.5849 25.8591 52.9291 25.8628 53.3022 25.8375L53.2748 25.4161L53.4245 24.1788L54.5999 23.0913C53.9818 21.5725 53.5443 21.2206 52.4429 19.9482C50.9251 18.5092 49.6637 17.3602 48.0508 16.0102C51.0207 12.4877 53.2242 11.5276 57.2919 9.92936Z" fill="#FCECD9"/>
<path d="M48.0508 16.0105C51.0207 12.4881 53.2242 11.528 57.2919 9.92969L58.4698 11.2369C59.8938 12.6191 61.0121 13.5232 61.993 15.2514L61.0758 16.2071L59.8759 15.7278L59.4178 16.6743C58.6478 16.6 58.3768 16.5308 57.6222 16.3422L57.0378 16.7813C56.6061 17.3829 56.7642 17.1185 56.4091 17.7992L56.159 18.2902L55.5245 18.4041C53.9749 17.3082 53.6406 17.1291 51.7519 16.9409C50.8233 16.3269 50.5956 15.9768 49.5989 15.9113C50.7538 17.1763 51.1924 17.5268 52.5703 18.5582L52.4429 19.9485C50.9251 18.5095 49.6637 17.3605 48.0508 16.0105Z" fill="#FCECD9"/>
<path d="M51.4336 13.2637C53.3054 13.654 56.1274 15.0406 57.034 16.7814C55.9095 16.7894 52.5826 14.1007 51.4336 13.2637Z" fill="#FCECD9"/>
<path d="M59.8735 15.7284C58.4012 13.0544 57.202 13.4821 55.2734 12.0064C57.5627 11.5769 60.2268 14.2803 61.0734 16.2078L59.8735 15.7284Z" fill="black"/>
<path d="M59.8962 39.5842L61.1495 39.1484C63.0785 40.4542 61.6394 43.3098 61.9803 45.2589C61.2535 46.7953 61.7987 46.3804 60.6094 46.9575L59.1884 46.8594C58.8398 45.5617 58.6977 44.0689 58.5234 42.7236C59.0291 41.6182 59.132 41.3183 59.4601 40.2022L59.8962 39.5842Z" fill="#FCECD9"/>
<path d="M59.8998 39.584C60.2289 41.2277 60.8855 44.377 60.464 45.9174C60.0792 45.5201 60.1667 45.7168 60.0678 45.4078L60.705 45.277L59.9631 44.9881C59.6951 43.2606 59.4311 41.9625 59.4637 40.2021L59.8998 39.584Z" fill="black"/>
<path d="M58.1486 46.8553C58.748 42.9718 56.5463 37.6651 56.878 36.2598L57.4529 36.3575C57.9483 37.4128 58.2921 41.1747 58.5276 42.724C58.7018 44.0692 58.8439 45.562 59.1925 46.8597L58.1486 46.8553Z" fill="black"/>
<path d="M71.3964 28.275C69.8007 26.4991 69.0625 23.2813 68.3906 20.9668C69.9007 23.0861 70.5535 25.264 71.7014 27.6884L71.3964 28.275Z" fill="black"/>
<path d="M57.2891 9.92936C59.7478 9.34021 61.0389 9.2344 63.5379 9.48339L61.8536 10.9894C60.9448 10.7042 60.4197 10.639 59.4912 10.4735C59.021 10.4984 57.8185 10.0831 57.2891 9.92936Z" fill="#FCECD9"/>
<path d="M52.5691 18.5571C51.1912 17.5257 50.7525 17.1752 49.5977 15.9102C50.5943 15.9757 50.8221 16.3258 51.7507 16.9398C53.301 18.3645 54.7213 19.5011 55.874 21.2575C54.7891 20.9485 53.5676 19.437 52.5691 18.5571Z" fill="black"/>
<path d="M59.4922 10.4727C60.4208 10.6382 60.9458 10.7033 61.8546 10.9886C63.9205 12.2104 64.5477 13.0596 65.6696 15.1906C64.5767 14.819 61.8089 11.6689 59.4922 10.4727Z" fill="black"/>
<path d="M58.4688 11.2363C60.4504 12.0785 62.9882 14.2462 62.9622 16.5387L62.5939 16.4717L61.9919 15.2509C61.011 13.5226 59.8927 12.6186 58.4688 11.2363Z" fill="black"/>
<path d="M145.61 354.959C146.939 353.671 148.574 350.192 150.189 349.471L150.898 350.514C158.821 354.688 167.942 356.494 175.671 350.595L176.078 349.793C177.462 350.514 180.864 354.948 181.534 356.38L182.398 357.065C183.332 358.24 183.353 358.171 183.679 359.602C183.017 364.11 174.767 365.399 171.029 366.014C166.184 366.995 140.647 367.061 142.368 358.335C144.161 358.943 146.407 365.062 150.608 363.297C148.769 361.642 143.115 362.477 144.867 355.644L145.61 354.959Z" fill="#FCECD9"/>
<path d="M150.898 350.514C158.822 354.688 167.943 356.493 175.672 350.594L175.888 351.48C174.735 352.436 173.366 353.545 172.036 354.227C166.123 357.247 154.209 357.423 150.898 350.514Z" fill="#FCECD9"/>
<path d="M181.532 356.379L182.397 357.064C183.33 358.239 183.352 358.169 183.678 359.601C183.015 364.109 174.766 365.397 171.027 366.013C172.477 363.515 172.682 363.706 175.568 363.464C179.196 361.018 181.185 361.249 181.532 356.379Z" fill="#FCECD9"/>
<path d="M181.531 356.379L182.395 357.064C181.743 360.934 179.642 362.479 175.955 363.592L175.566 363.464C179.195 361.018 181.183 361.249 181.531 356.379Z" fill="black"/>
<path d="M150.189 349.471L150.898 350.514C154.208 357.424 166.122 357.248 172.036 354.227C173.365 353.546 174.734 352.437 175.888 351.481C171.845 360.133 149.67 358.156 150.189 349.471Z" fill="black"/>
<path d="M145.61 354.959C146.777 361.056 147.665 358.185 149.522 361.605C145.923 361.839 145.937 358.024 144.867 355.644L145.61 354.959Z" fill="black"/>
<path d="M171.067 357.379C173.623 355.266 174.747 353.658 177.999 354.823L177.794 355.888L177.541 355.811C175.89 358.012 173.319 359.718 170.577 360.15L169.998 359.927L170.295 359.674L169.328 358.58C170.796 357.961 170.419 358.448 171.067 357.379Z" fill="#FCECD9"/>
<path d="M170.297 359.674C173.219 358.213 174.321 357.389 176.972 355.412L177.543 355.811C175.891 358.012 173.321 359.718 170.579 360.15L170 359.927L170.297 359.674Z" fill="black"/>
<path d="M171.07 357.38C170.422 358.449 170.799 357.962 169.33 358.581C163.732 360.346 159.829 360.075 154.578 357.684L154.574 357.219C161.637 359.815 163.911 359.222 171.07 357.38Z" fill="black"/>
<path d="M148.254 354.516C149.032 355.043 149.305 355.841 150.075 356.577C152.168 358.573 154.609 359.689 157.187 360.89C152.982 360.934 148.995 358.946 148.254 354.516Z" fill="black"/>
<path d="M177.999 354.823L178.475 354.666C179.679 356.889 179.727 360.924 176.34 360.305L176.812 359.887C178.431 358.43 178.412 357.903 177.793 355.889L177.999 354.823Z" fill="black"/>
<path d="M158.535 364.281C160.685 364.039 167.092 363.662 168.861 364.743C165.327 365.153 162.017 364.852 158.535 364.281Z" fill="black"/>
<path d="M147.043 354.955C148.736 357.211 148.409 358.038 150.975 360.557C148.086 359.55 147.135 357.936 147.043 354.955Z" fill="black"/>
<path d="M154.576 357.683C153.343 357.258 152.403 356.57 151.419 355.75L151.269 355.124L151.09 355.105C152.313 355.241 153.539 356.424 154.573 357.218L154.576 357.683Z" fill="black"/>
<path d="M101.547 30.1031L100.649 28.5041C101.595 27.6055 103.671 28.3653 104.546 29.2151C105.59 30.2298 106.856 33.6204 107.724 33.992C107.62 32.4117 105.89 29.7321 104.742 28.6267C103.03 26.9779 102.181 28.7135 101.8 27.3038C103.594 25.8022 108.991 26.4459 111.215 26.9713C115.756 34.159 116.938 43.3573 116.272 51.7108L115.885 51.9774L115.414 51.7288L114.359 51.9693C113.232 52.0261 111.08 52.133 110.117 51.6175L109.81 48.9496C109.184 49.3868 109.662 50.6296 108.621 51.835L108.133 51.635L107.783 50.0866C106.652 50.9382 107.085 50.4128 106.504 51.7753L105.21 52.0466L104.675 52.0309C102.033 51.1649 100.117 51.512 97.3408 50.8965C96.6525 49.9708 96.922 44.0596 96.4006 41.5166C95.7565 38.3742 94.6452 36.1608 94.0703 33.5288L94.5522 33.2092L95.3435 31.5553L96.3368 30.8449L96.9912 30.1342L97.9996 29.3385C98.6023 28.9618 98.8022 28.8589 99.4539 28.574L101.547 30.1031Z" fill="#FCECD9"/>
<path d="M95.3421 31.5547C95.8118 35.6388 101.068 42.5929 99.0889 47.8363C98.1388 44.7309 97.729 35.5517 94.5508 33.2086L95.3421 31.5547Z" fill="black"/>
<path d="M99.4531 28.5742L101.546 30.1033C102.911 31.472 103.878 33.2783 104.417 35.1263C103.861 35.8293 104.201 35.5576 103.278 35.8033C102.344 33.5869 99.6018 30.535 99.4531 28.5742Z" fill="#FCECD9"/>
<path d="M95.3398 31.5541L96.3332 30.8438C97.9465 33.2527 100.351 37.4251 100.469 40.3419L100.156 40.5942C98.6788 39.0863 98.4123 33.1062 95.3398 31.5541Z" fill="black"/>
<path d="M98 29.3388C98.6027 28.962 98.8026 28.8591 99.4544 28.5742C99.603 30.535 102.345 33.5869 103.279 35.8033C103.581 36.4796 103.639 36.6696 103.863 37.3664C102.519 36.7612 100.578 31.0886 98 29.3388Z" fill="black"/>
<path d="M96.9883 30.1335L97.9967 29.3379C98.7744 31.9629 100.356 34.2616 101.287 37.0994C100.408 35.6871 97.7396 30.8336 96.9883 30.1335Z" fill="black"/>
<path d="M104.676 52.0314C104.556 50.5817 104.289 48.0651 104.319 46.7019L104.525 47.3518L104.397 45.9238C105.103 48.0746 104.78 49.8069 105.21 52.0471L104.676 52.0314Z" fill="black"/>
<path d="M114.357 51.9702C114.381 50.5971 114.222 49.8289 114.733 48.6367C115.221 49.9011 115.238 50.4144 115.412 51.7297L114.357 51.9702Z" fill="black"/>
<path d="M106.949 26.7559C110.659 27.3175 111.483 31.6547 112.222 34.7638C110.283 33.4661 111.139 30.1154 106.949 26.7559Z" fill="black"/>
<path d="M105.676 28.2363C108.827 29.2337 109.047 31.0609 109.729 34.0216C108.495 33.0466 108.016 30.4867 105.676 28.2363Z" fill="black"/>
<path d="M112.414 38.7852L113.233 39.4527C113.87 40.9074 113.807 42.7137 113.89 44.3489L113.316 44.0941C112.719 43.0304 112.562 40.1469 112.414 38.7852Z" fill="black"/>
<path d="M285.978 44.002L286.26 44.6285C275.806 50.1812 250.57 53.0454 238.637 54.3254C205.976 57.6059 173.124 58.6472 140.319 57.4426C118.826 56.8347 97.44 56.1515 76.1428 52.8374C71.8646 52.1717 59.3738 50.8857 56.0469 49.048C56.3614 48.2977 57.5771 48.7869 58.4654 48.9308C87.4091 53.6217 115.558 54.9842 144.815 55.5418C178.719 56.4444 212.647 55.1335 246.381 51.617C258.38 50.32 274.986 48.602 285.978 44.002Z" fill="#FCECD9"/>
<path d="M124.585 389.63C132.803 390.538 141.172 392.061 149.547 392.559C171.901 393.885 202.409 392.505 222.83 383.277C224.016 384.134 223.683 384.116 224.221 385.895C199.403 397.103 166.749 398.502 139.882 395.496C136.763 395.148 129.165 394.178 126.325 393.405C127.384 393.211 128.044 393.328 128.503 392.691C126.434 392.043 124.374 391.937 124.585 389.63Z" fill="#FCECD9"/>
<path d="M220.775 385.445C221.079 385.441 220.87 385.427 221.375 385.639C215.747 388.982 200.596 392.069 193.997 393.383L193.573 393.343L193.551 392.966C195.063 392.362 196.828 392.021 198.446 391.739C206.172 390.388 213.364 387.982 220.775 385.445Z" fill="black"/>
<path d="M134.891 392.449L136.212 392.713C142.453 394.013 158.233 394.221 161.041 395.192C153.607 395.521 143.8 394.994 136.483 393.555C135.142 393.288 135.479 393.405 134.891 392.449Z" fill="black"/>
<path d="M4.02225 9.47749C3.38513 8.6313 2.94977 8.21535 2.75021 7.17253C3.80182 6.57642 4.87394 7.11101 6.49639 7.0689L7.03975 7.0495L8.08113 7.77632C10.928 9.11939 12.754 11.5961 14.0275 14.4159C15.0938 15.5301 15.0502 17.1785 15.6416 18.6677L15.9458 18.9852C16.0853 19.4121 16.2205 19.8405 16.3515 20.27C16.9513 22.2498 17.078 22.4388 16.011 24.1678C17.8198 25.747 17.4065 26.9989 17.3534 29.2395L15.8968 31.7517L15.5943 31.7238L15.1897 28.272C14.2209 29.6675 15.6668 33.7875 13.4508 35.4755C-3.75753 48.5844 4.22291 19.099 4.62166 13.3998L5.18992 13.3646L5.65533 13.0234C4.92008 12.1351 4.45102 10.6086 4.02225 9.47749Z" fill="#FCECD9"/>
<path d="M4.02204 9.47749C3.38492 8.6313 2.94956 8.21535 2.75 7.17253C3.80161 6.57642 4.87373 7.11101 6.49618 7.0689L7.03954 7.0495L8.08091 7.77632C10.9278 9.11939 12.7538 11.5961 14.0273 14.4159C15.0936 15.5301 15.05 17.1785 15.6413 18.6677C11.618 18.2642 8.55289 15.7286 5.65511 13.0234C4.91986 12.1351 4.45081 10.6086 4.02204 9.47749Z" fill="#FCECD9"/>
<path d="M8.08161 7.77734C10.9285 9.12041 12.7545 11.5971 14.028 14.4169C11.4126 14.0094 8.03181 12.9783 6.8125 10.4221C6.9359 8.80992 6.92125 9.29031 8.08161 7.77734Z" fill="#FCECD9"/>
<path d="M4.02204 9.47749C3.38492 8.6313 2.94956 8.21535 2.75 7.17253C3.80161 6.57642 4.87373 7.11101 6.49618 7.0689L7.03954 7.0495C5.80924 8.18789 5.56649 9.53864 4.02204 9.47749Z" fill="#FCECD9"/>
<path d="M5.65291 13.0234C8.55069 15.7286 11.6158 18.2643 15.6391 18.6678L15.9434 18.9852C13.7629 20.3785 11.1431 17.704 8.7561 16.7165L7.67447 17.231C6.78763 16.0611 5.96229 14.6283 5.1875 13.3647L5.65291 13.0234Z" fill="black"/>
<path d="M3.81641 23.623C5.6256 24.8347 5.46523 25.8537 5.31034 27.7877C4.42497 26.203 4.18879 25.3682 3.81641 23.623Z" fill="black"/>
<path d="M258.959 66.0665C250.113 68.746 235.983 70.6603 226.631 71.5457C184.189 75.5632 140.161 75.3563 97.7374 70.9774C85.0859 69.6717 71.6036 68.4835 59.7042 63.008C59.1586 62.7568 58.8448 62.3928 58.4922 61.9381L58.6859 61.6777C73.5783 67.2825 84.953 68.5308 100.757 69.8775C145.378 73.6797 192.043 74.2198 236.561 69.0665L237.766 68.8771C243.284 67.979 254.312 66.685 259.878 64.5232C260.164 64.1555 260.449 63.7883 260.735 63.421L261.277 64.3939L266.916 62.9333C265.495 63.7843 259.721 66.4155 259.625 66.5092L258.959 66.0665Z" fill="#FCECD9"/>
<path d="M148.64 169.623C156.441 170.926 163.621 172.352 171.468 170.66C173.152 170.297 175.855 169.692 177.51 169.913C179.209 172.235 177.246 173.465 175.489 175.087C174.09 175.973 172.991 176.621 171.443 177.244C165.811 179.452 159.539 179.368 153.968 177.01C150.687 175.636 146.528 173.659 148.64 169.623Z" fill="#FCECD9"/>
<path d="M171.535 172.55L169.898 172.752L169.983 172.4C171.912 171.651 174.215 170.89 176.299 171.178L176.68 171.578C176.167 172.905 175.31 173.477 174.139 174.297L173.736 173.876L171.909 174.875C171.396 173.975 171.521 173.605 171.535 172.55Z" fill="black"/>
<path d="M171.535 172.551C172.817 172.36 174.538 171.868 175.541 172.298C174.944 173.188 174.629 173.287 173.736 173.876L171.909 174.876C171.396 173.975 171.521 173.605 171.535 172.551Z" fill="#FCECD9"/>
<path d="M149.039 170.846C151.018 170.77 153.392 171.729 154.922 172.993C152.883 172.674 150.746 172.023 149.039 170.846Z" fill="black"/>
<path d="M173.734 173.875L174.136 174.296C172.829 175.058 172.082 175.662 170.625 175.845C171.302 175.102 171.002 175.31 171.907 174.875L173.734 173.875Z" fill="#FCECD9"/>
<path d="M121.963 97.9087C122.977 95.8703 126.674 96.012 127.446 93.3046C126.991 93.2874 118.605 98.0127 117.189 98.6919L116.949 98.3598C117.606 97.4957 120.858 96.1475 121.985 95.5726C123.941 94.5752 128.745 90.4534 130.583 90.6646L130.177 91.4812L130.659 91.6243C133.374 90.7382 138.372 90.1733 141.161 90.8726C142.917 91.3131 147.918 93.3955 148.889 94.9088C148.066 95.5847 146.544 95.5455 145.44 95.7619L145.89 97.1654C145.688 97.3192 145.486 97.473 145.284 97.6268C145.919 98.001 146.459 98.3972 146.974 98.9281L146.511 99.2862C144.794 99.5246 145.553 99.6776 144.12 99.0211C143.388 97.7458 143.628 98.0204 143.593 96.3496C142.614 96.0739 143.135 96.1028 141.966 96.6762C142.646 98.0735 142.851 98.3181 143.009 99.8208L142.61 100.227L141.988 100.068C140.951 98.4576 140.598 96.0651 141.796 94.476L141.105 94.4357C139.945 95.3976 139.778 96.6568 139.287 98.2126C138.271 98.7835 137.945 98.7685 136.805 98.9911C135.68 98.4719 136.122 98.5942 135.481 96.9124C134.648 97.317 135.062 97.287 134.226 97.2449C134.259 96.4712 134.317 95.7495 134.378 94.9787C134.03 95.5397 133.861 95.7502 133.695 96.3657C133.256 97.9981 127.872 100.244 126.438 100.198L126.165 99.8113C126.697 98.9995 126.709 98.7886 127.426 98.243L128.289 98.8812L128.557 98.4671L127.485 97.8069L127.595 97.2716C128.478 97.0464 128.14 97.0164 128.966 97.2346C128.049 96.1892 128.587 96.3979 127.463 96.2204C125.927 97.0739 123.801 98.261 121.963 97.9087Z" fill="#FCECD9"/>
<path d="M134.379 94.9792C136.353 94.847 137.054 92.9243 139.635 92.2059L140.484 91.0547C140.861 92.5362 141.001 92.1557 140.541 93.3377C138.76 94.6097 136.539 94.9957 134.379 94.9792Z" fill="black"/>
<path d="M145.439 95.7621C143.834 94.8606 143.544 93.8683 142.102 92.5073L142.202 91.9687C143.051 91.9632 142.772 91.9009 143.549 92.3605C144.663 93.0847 146.383 93.8694 147.186 94.7669L145.528 94.2528C145.097 95.1348 145.216 94.6577 145.439 95.7621Z" fill="black"/>
<path d="M133.323 92.1348L133.703 92.6686C133.555 94.2713 133.802 95.8059 132.082 96.1922L131.197 95.2123C130.413 95.242 130.769 95.3441 130.125 94.9176C131.117 93.599 132.003 93.0871 133.323 92.1348Z" fill="black"/>
<path d="M137.734 112.924C137.826 113.986 137.11 115.361 136.703 116.556L136.887 116.401C136.396 118.245 133.401 122.09 133.662 123.955L133.922 123.8C134.394 122.843 137.3 117.67 138.578 119.106C138.419 118.928 139.321 118.49 139.509 118.446C139.93 119.898 139.948 119.202 139.485 120.613C138.582 121.696 137.952 121.568 136.866 122.045C134.387 123.134 134.573 128.179 131.723 129.706L131.286 129.227C131.293 127.729 132.74 121.87 133.163 120.077C131.33 123.182 129.755 127.377 129.206 131.056C129.126 131.591 129.513 131.716 130.055 132.216C131.988 131.742 132.244 132.8 134.052 131.679C134.857 130.236 134.779 127.8 135.119 125.894C136.44 127.827 136.999 132.127 133.961 133.219C134.038 134.856 134.581 132.874 135.506 134.948C135.116 136.536 134.816 138.866 137.428 138.315C138.159 137.533 138.712 136.96 139.314 136.062L139.697 135.48C140.2 136.496 140.584 137.212 141.155 138.192C141.255 137.112 141.136 137.181 141.535 136.238C142.137 137.655 142.096 138.759 141.516 140.172L141.204 140.19C140.447 138.792 140.422 138.703 139.247 137.675C138.976 138.945 139.049 138.935 138.024 139.507C136.511 138.935 136.392 138.696 135.207 139.626C134.841 140.656 134.906 140.105 135.398 141.359L135.99 141.489C136.794 140.91 136.758 140.759 137.611 140.589C138.253 141.243 138.185 141.269 138.455 142.166L138.093 142.635C136.342 143.026 135.697 143.044 134.279 144.117L134.045 143.849L134.742 142.738C134.223 141.599 133.049 139.894 131.796 139.589L131.466 140.243C132.069 145.096 133.589 142.935 134.811 145.687L134.62 146.016L133.116 145.475C131.145 143.475 128.828 138.341 128.587 135.357C127.776 125.314 131.842 120.151 137.734 112.924Z" fill="#FCECD9"/>
<path d="M129.876 133.351L132.1 133.318C134.863 135.641 134.81 137.131 134.106 140.595L133.578 140.013C133.702 138.85 133.84 139.183 133.458 138.231C132.431 138.213 132.295 138.345 131.523 137.741C131.644 136.655 131.681 137.025 131.467 135.972C130.401 136.075 130.285 136.167 129.272 135.896C129.066 134.628 129.276 134.767 129.876 133.351Z" fill="black"/>
<path d="M129.199 136.656C129.98 136.931 130.296 137.096 131.044 137.456C131.512 138.598 131.309 138.382 130.951 139.869C130.72 139.877 130.509 139.736 130.293 139.654L129.199 136.656Z" fill="black"/>
<path d="M38.5765 37.9038L38.1455 37.5878L38.125 37.0851C40.0356 34.9452 46.413 33.0998 49.2614 32.5334C51.1793 32.1522 51.0153 32.1785 52.225 33.0094L51.6974 34.0818C53.113 35.9408 53.4769 42.8341 53.7267 45.5291C50.9922 44.8696 37.2825 42.327 38.679 38.4292L38.5765 37.9038Z" fill="#FCECD9"/>
<path d="M38.5765 37.9038L38.1455 37.5878L38.125 37.0851C40.0356 34.9452 46.413 33.0998 49.2614 32.5334C51.1793 32.1522 51.0153 32.1785 52.225 33.0094L51.6974 34.0818C46.9157 35.9434 44.1809 35.9339 38.679 38.4292L38.5765 37.9038Z" fill="#FCECD9"/>
<path d="M52.2267 33.0098L51.6991 34.0823C46.9174 35.9438 44.1825 35.9343 38.6806 38.4296L38.5781 37.9042C42.2602 35.2096 48.1198 34.6974 52.2267 33.0098Z" fill="black"/>
<path d="M93.7695 376.521C96.8427 379.227 98.5856 380.568 102.101 382.611C109.454 386.382 116.47 388.169 124.585 389.63C124.374 391.937 126.434 392.043 128.503 392.691C128.044 393.328 127.384 393.211 126.325 393.405C118.269 391.915 107.409 389.008 100.452 384.606C96.2781 382.234 95.3953 380.78 93.7695 376.521Z" fill="#FCECD9"/>
<path d="M100.734 383.776L100.332 383.025L101.467 383.113C105.321 385.523 109.446 386.727 113.672 388.225C116.053 389.067 120.783 389.858 122.65 391.301C121.942 391.714 119.557 390.956 118.574 390.7C112.385 389.074 106.4 386.753 100.734 383.776Z" fill="black"/>
<path d="M93.7695 376.521C96.8427 379.227 98.5856 380.568 102.101 382.611L101.467 383.112L100.332 383.024L100.734 383.775L100.452 384.606C96.2781 382.234 95.3953 380.78 93.7695 376.521Z" fill="#FCECD9"/>
<path d="M162.208 135.551C162.782 136.038 162.526 135.762 162.801 136.594L162.38 137.39L162.164 137.18C160.769 143.171 158.546 148.526 152.07 150.185L151.148 149.446C149.196 149.644 148.049 149.913 146.45 148.79C147.128 148.317 149.794 148.103 150.811 147.964L151.262 146.574L151.966 146.396C153.198 146.922 153.284 147.127 154.125 148.134L154.368 148.429C155.185 148.093 154.804 148.304 155.419 147.494C154.804 146.463 153.989 146.333 152.716 145.669L152.836 145.239C155.547 144.322 154.727 146.117 157.162 147.185C158.224 146.494 158.037 146.313 158.692 144.958C157.986 143.855 155.324 142.745 154.066 142.123C154.368 142.824 154.449 143.038 154.643 143.774L154.126 143.823C150.869 144.261 149.221 147.812 145.773 147.394C144.837 146.688 144.882 146.692 144.201 145.722L144.509 145.293C146.138 145.794 148.54 146.862 149.76 145.362C149.142 144.697 149.432 145.061 148.901 144.264L149.502 143.801C151.405 144.031 151.729 144.302 153.18 143.001L152.987 142.719C151.313 142.06 149.91 142.102 148.108 141.983L148.225 142.071C146.351 141.973 145.79 141.981 144.021 141.417C143.479 140.53 143.585 141.006 143.754 139.93C144.781 139.877 144.32 139.718 145.193 140.3C144.468 140.783 144.693 140.461 144.459 141.222L145.057 141.617C146.11 141.553 146.976 140.771 147.071 140.767C155.313 140.383 155.91 142.273 162.208 135.551Z" fill="#FCECD9"/>
<path d="M258.962 66.0664L259.628 66.5091C254.949 73.8898 215.25 131.098 211.855 131.409C213.027 129.141 215.817 125.896 217.439 123.805C231.914 105.138 245.809 85.7053 258.962 66.0664Z" fill="#FCECD9"/>
<path d="M150.69 108.922C150.141 107.538 149.87 106.72 149.08 105.473L148.501 105.382C149.004 108.168 150.715 108.788 148.459 112.093L148.093 112.014C147.982 110.139 147.329 104.246 148.078 103.104L148.904 102.74C149.29 102.984 149.775 103.206 149.984 103.53L149.23 104.051C154.605 110.79 147.289 118.55 147.933 121.805L148.599 122.141C150.745 121.248 150.831 119.865 151.014 117.764L151.233 115.43L151.614 115.149L152.012 115.551L151.915 117.258L152.355 117.693C152.729 116.889 153.623 114.817 154.019 114.149L154.645 114.169L154.462 113.904L153.813 114.417L154.722 114.834C154.66 116.942 145.398 129.317 143.398 130.624C144.386 128.879 147.778 124.299 147.805 123.439L147.233 123.538L145.807 125.032C145.468 124.251 146.135 122.517 146.404 121.479C145.529 122.027 144.806 122.447 143.901 122.947L143.584 122.327C144.837 119.684 147.853 121.514 146.902 118.445C146.689 117.758 146.788 116.828 146.901 116.113L146.505 115.991C145.601 117.819 145.885 119.154 144.815 120.417L144.087 120.569C144.063 119.927 143.997 120.353 144.334 119.785C145.258 118.232 144.61 115.372 146.64 114.466C147.298 114.724 147.696 114.908 148.329 115.226C149.418 114.57 149.684 113.15 149.98 111.957C150.228 110.948 150.464 109.936 150.69 108.922Z" fill="#FCECD9"/>
<path d="M149.965 180.514C153.387 180.056 159.453 181.301 163.319 181.224C167.226 181.144 170.514 180.752 174.374 180.367C175.52 180.254 175.567 180.408 176.065 180.917L175.337 181.671C169.145 184.49 154.722 186.131 149.965 180.514Z" fill="#FCECD9"/>
<path d="M45.1114 20.5059C48.1637 22.0243 49.8418 26.6342 50.9073 29.6441C48.8524 30.0564 46.8426 30.5928 44.8133 31.1135C43.423 31.5225 41.7691 32.1369 40.3711 32.6114C41.7852 28.4105 42.936 24.3538 45.1114 20.5059Z" fill="#FCECD9"/>
<path d="M146.972 98.9276C147.664 97.3022 147.266 97.8756 148.739 96.795C149.915 96.6489 150.603 96.8251 151.466 97.5852C153.747 99.5947 156.298 103.701 156.382 106.816C156.393 107.339 156.595 107.625 156.866 108.06C151.348 106.206 157.03 95.5864 135.343 104.548C135.739 103.464 137.882 103.314 138.459 102.155C137.979 102.118 137.545 102.055 137.074 102.091L136.732 102.271C135.152 103.087 134.724 103.457 133.116 103.011C132.536 101.847 132.816 101.582 132.929 100.042L131.402 100.494C131.235 99.5603 131.184 100.026 131.814 99.1037L134.153 98.0806C134.422 99.7987 133.11 99.5054 134.085 100.532C136.559 100.605 137.244 99.7089 139.263 99.513C139.645 100.06 140.042 100.598 140.452 101.125C143.162 101.58 148.355 98.6438 149.669 99.9272L149.055 100.472L149.545 100.973C150.667 100.723 150.999 100.376 151.918 99.7064L152.283 100.079L152.092 101.698L152.555 101.722C153.676 100.592 153.515 101.187 153.677 99.9627C152.001 97.6486 148.725 98.8221 146.972 98.9276Z" fill="#FCECD9"/>
<path d="M239.922 64.0112L239.23 65.3916C240.907 66.9723 257.344 62.655 259.076 59.58C260.236 57.5134 259.98 57.6313 259.918 55.3574L260.244 55.4189C265.048 65.0127 240.68 64.7706 237.886 67.9152L237.769 68.8775L236.564 69.0668C236.934 68.2147 236.967 68.1536 237.139 67.2462C236.275 66.6545 235.564 67.0452 234.173 67.2294L234.429 66.5417C236.22 66.2323 236.989 66.2474 238.362 65.0394C237.22 64.1877 223.042 65.6582 220.808 65.8233L220.219 65.4367C224.583 64.2932 232.782 64.7293 237.381 63.1566C239.585 62.4027 239.636 62.0603 240.661 59.997L241.331 58.4357L242.335 57.3588L242.635 57.5756C242.243 59.4544 241.361 61.1288 240.559 62.8875L239.922 64.0112Z" fill="#FCECD9"/>
<path d="M106.087 67.3819C105.326 67.5046 104.788 67.4712 104.02 67.4035C104.392 68.6613 104.492 68.1362 104.151 69.1472C102.932 69.0421 103.01 67.324 102.631 67.3123C100.098 67.2347 94.77 67.7385 92.6203 66.3318C94.2522 65.6298 99.5681 66.8063 102.16 66.3065C102.312 65.2607 102.398 65.7503 101.833 64.8012C97.5846 64.7375 82.4571 64.2706 82.3008 58.0291L82.7893 57.5703C83.2843 58.3876 83.7947 59.1953 84.3202 59.9932C85.992 62.5047 87.7668 62.3988 90.6031 62.9876C93.1706 63.5208 99.1166 64.3439 101.472 63.4472L101.467 62.8488C98.916 60.653 95.8831 62.5299 92.4866 59.5146L92.7755 59.3447C95.811 60.7815 98.5747 60.8112 101.926 61.1685C102.009 61.579 102.155 62.4501 102.274 62.8067C102.453 63.3692 102.443 63.799 102.873 63.9371C104.695 64.5233 110.193 64.7016 111.961 64.5617L112.238 65.2717C109.4 65.9191 105.423 64.717 103.574 65.5156C104.034 66.5163 104.849 66.502 105.934 66.773L106.087 67.3819Z" fill="#FCECD9"/>
<path d="M211.574 113.562C216.151 105.53 220.651 97.4564 225.082 89.3416C226.847 86.0883 232.237 75.8823 234.126 73.3555L234.338 73.5909C231.728 81.9814 217.44 105.613 212.215 113.804L211.574 113.562Z" fill="#FCECD9"/>
<path d="M178.019 45.0541C183.181 44.8962 187.414 45.3221 192.489 45.4718C207.026 45.901 220.376 46.7175 234.766 48.8658L234.997 49.1957C234.451 49.3312 234.349 49.262 233.763 49.2301C218.468 47.2422 191.442 45.6656 176.217 45.7527L176.159 45.3199L175.375 45.6363C176.393 45.0467 176.77 45.1731 178.019 45.0541Z" fill="#FCECD9"/>
<path d="M83.0508 91.6621C86.2016 93.9444 92.9997 103.685 95.8019 107.1C102.501 115.266 110.702 127.222 117.816 134.655C114.218 132.961 91.7068 103.113 87.8647 97.8561C86.8896 96.5218 83.9299 93.1286 83.0508 91.6621Z" fill="#FCECD9"/>
<path d="M92.1247 36.3105C93.995 38.714 94.2652 41.0175 94.8668 43.9614C93.5985 44.3368 91.9266 44.6304 90.6058 44.9017C89.3525 44.9614 89.1906 45.12 88.0859 44.6857C88.6791 42.3628 90.827 38.4116 92.1247 36.3105Z" fill="#FCECD9"/>
<path d="M202.74 68.8752C205.076 68.6214 207.324 68.7287 209.671 68.7778C202.743 70.0864 195.263 69.963 188.229 70.1538C182.052 70.3211 175.919 70.5134 169.738 70.5679C168.017 70.5961 166.71 70.7715 165.113 70.1681C165.868 69.7045 166.647 69.6478 167.534 69.6785C179.339 70.0846 190.971 69.2212 202.74 68.8752Z" fill="#FCECD9"/>
<path d="M163.697 47.2085C169.076 47.0939 204.461 48.0598 205.857 49.1572L205.49 49.5607C197.285 48.8939 188.98 48.6285 180.782 48.1777C177.56 48.0009 165.407 48.6837 163.312 47.6028L163.697 47.2085Z" fill="#FCECD9"/>
<path d="M144.676 110.403C144.861 107.419 144.849 106.753 145.877 103.964L145.672 104.781C146.56 107.106 144.713 115.89 143.263 117.445L142.832 117.169L143.075 116.176L142.768 115.678C142.24 116.878 141.878 118.014 140.967 118.926L140.621 118.469C140.743 116.747 141.058 117.29 141.508 116.187C142.595 113.523 143.75 106.568 142.897 104.098L143.33 103.869L144.021 104.407C144.503 105.816 144.297 106.223 143.99 107.684L144.676 110.403Z" fill="#FCECD9"/>
<path d="M144.674 110.403C144.153 111.904 144.027 112.413 143.204 113.738L142.988 113.508C143.328 111.558 143.685 109.64 143.988 107.684L144.674 110.403Z" fill="black"/>
<path d="M132.523 51.0367C138.361 49.467 165.055 48.3806 170.111 49.8848C158.442 51.0887 145.736 49.2729 132.677 51.5178L132.523 51.0367Z" fill="#FCECD9"/>
<path d="M108.757 72.9121L109.217 73.3738C110.054 76.2881 109.188 81.2144 109.521 84.5516C109.67 86.0506 110.496 91.0395 110.305 91.9941C109.428 92.2812 109.047 92.6034 108.389 92.3434C109.011 91.3834 109.66 90.6316 109.771 89.5225L109.274 88.9883L108.137 89.0608C108.897 85.4032 107.841 81.3597 108.498 77.2778L108.192 76.8758C107.499 77.2174 107.044 78.6029 105.758 78.8062C105.239 77.3748 105.049 76.1907 106.185 74.9549C106.849 75.1607 107.264 75.2702 107.944 75.4137C108.756 74.5151 108.526 74.3676 108.757 72.9121Z" fill="#FCECD9"/>
<path d="M139.856 121.262L140.195 121.567C140.329 122.228 140.292 122.849 140.245 123.52C141.036 122.733 141.236 122.425 142.235 121.928L142.522 122.333L141.973 124.347L142.376 124.675L143.581 123.238L143.972 123.554C143.846 125.304 141.985 128.177 140.429 128.856C140.144 127.907 140.871 126.24 141.217 125.184L140.794 124.666L140.363 124.652C139.492 126.213 138.904 127.934 137.095 128.364C136.089 126.44 136.058 124.883 137.551 123.383C138.16 124.338 137.194 125.251 137.611 126.907C138.946 125.087 138.342 123.709 139.856 121.262Z" fill="#FCECD9"/>
<path d="M96.5195 57.3848C99.4276 57.1827 105.295 58.4796 108.504 58.1398C109.973 57.9842 112.74 59.1295 114.441 58.6788C114.985 58.5349 115.15 58.7997 115.63 59.09C112.286 61.1764 99.2079 59.6195 96.5195 57.3848Z" fill="#FCECD9"/>
<path d="M222.828 383.277C224.703 382.248 230.195 378.715 231.484 378.279L231.832 378.495C231.019 381.857 227.141 384.401 224.22 385.895C223.681 384.116 224.014 384.134 222.828 383.277Z" fill="#FCECD9"/>
<path d="M52.2355 26.0046C50.0075 21.8 49.1865 21.4752 46.6758 18.1999L47.0262 17.7693C47.6772 18.1665 47.3466 18.0314 48.0042 18.2076L47.4649 16.9084L48.1016 16.8477C50.445 18.3269 52.2524 21.2394 54.5976 23.0907L53.4223 24.1781L53.2725 25.4154L53.3 25.8368C52.9268 25.8621 52.5827 25.8585 52.2355 26.0046Z" fill="#FCECD9"/>
<path d="M53.2714 25.416C52.0978 23.8991 50.0525 20.4905 48.9375 18.752C50.9495 20.8713 51.7525 21.7947 53.4211 24.1788L53.2714 25.416Z" fill="black"/>
<path d="M152.055 45.2684C143.543 45.0224 128.697 46.4881 119.824 46.9868L119.962 46.829C129.222 45.2007 142.729 44.5013 152.082 44.5449L152.055 45.2684Z" fill="#FCECD9"/>
<path d="M214.203 62.5047C221.827 62.3542 234.58 61.1788 241.328 58.4355L240.658 59.9969C239.263 59.4956 233.108 61.6351 230.838 61.9364C223.797 62.8712 216.682 63.345 209.593 63.1151L209.253 63.0623L209.238 62.7456C211.223 62.393 212.211 62.4703 214.203 62.5047Z" fill="#FCECD9"/>
<path d="M209.593 63.1149L209.253 63.0622L209.238 62.7455C211.223 62.3928 212.211 62.4701 214.203 62.5045C212.296 62.9212 211.549 63.0087 209.593 63.1149Z" fill="black"/>
<path d="M70.1504 54.1035C71.0625 54.3364 71.0288 54.3119 71.8186 54.8171C71.0482 56.2331 70.8684 55.9954 71.0742 57.2415L71.6912 57.3045C73.533 54.9548 71.3485 56.3195 72.6494 54.8245L73.2997 54.994L73.5231 55.9848C75.0174 55.2324 75.6527 54.5641 77.039 54.7066L77.4882 55.5399L77.1708 56.3653L76.5567 56.5908L76.2865 55.7384L75.8585 55.529C75.3707 56.4447 75.3883 56.4557 74.6772 57.199C73.7033 57.1393 74.0046 57.1163 73.0207 57.3026L72.6436 58.7109C74.351 58.578 75.415 58.5904 76.6885 57.2539C77.2835 56.6293 78.6731 55.3927 79.5508 55.6088C78.0488 60.363 73.0427 59.9181 69.6913 57.0866C69.3167 55.7915 69.6532 55.6795 70.1504 54.1035Z" fill="#FCECD9"/>
<path d="M140.581 108.381L140.807 108.637L141.076 108.48C141.162 107.209 141.066 105.345 142.06 104.58C142.801 106.843 140.816 116.107 139.233 117.42L138.571 117.211C138.14 115.982 139.239 109.689 139.611 108.059L140.581 108.381Z" fill="#FCECD9"/>
<path d="M226.367 58.6025L227.158 58.5234L227.524 58.8457C224.895 60.419 207.129 60.6545 203.105 60.549C201.852 60.478 202.057 60.9474 200.754 60.4381L200.772 60.5044C201.486 59.8226 205.906 60.0727 207.334 60.0104C213.69 59.7347 220.036 59.2653 226.367 58.6025Z" fill="#FCECD9"/>
<path d="M67.6758 72.2266C69.6205 73.5451 80.7883 88.3529 82.9801 91.1823C79.3753 89.3295 70.1232 76.1569 67.6758 72.2266Z" fill="#FCECD9"/>
<path d="M132.707 65.1992C136.26 65.1253 154.199 64.8664 156.328 65.9242C152.257 66.3493 136.054 66.3025 132.707 65.1992Z" fill="#FCECD9"/>
<path d="M128.953 48.336C134.7 47.3679 148.384 46.7813 154.269 47.2734C149.346 48.2203 139.569 47.9878 133.646 48.6275C131.841 48.6227 130.75 48.5396 128.953 48.336Z" fill="#FCECD9"/>
<path d="M36.0693 39.3301C36.3736 39.5571 36.8672 40.1646 37.0312 40.4802C39.9458 46.0861 47.5418 45.9652 52.9097 47.7338C54.2238 48.1666 54.1349 48.1963 54.5926 49.1856C49.388 48.3786 39.2706 45.2095 35.9408 40.9507C35.5435 40.4425 35.8906 39.9544 36.0693 39.3301Z" fill="#FCECD9"/>
<path d="M197.795 66.3069L198.465 66.293L198.736 66.5918C197.1 67.505 182.288 67.7931 179.121 67.914C178.627 67.877 178.495 67.7854 178.012 67.6251C179.648 66.7181 194.606 66.4405 197.795 66.3069Z" fill="#FCECD9"/>
<path d="M160.811 59.7101C164.022 59.6163 170.858 59.337 173.71 59.8229C171.125 60.4149 168.595 60.3315 165.94 60.3692C161.045 60.8444 157.006 60.1462 152.492 60.1982C155.036 59.8309 158.189 59.8038 160.811 59.7101Z" fill="black"/>
<path d="M116.656 67.6484C121.695 68.2716 126.011 68.2357 131.05 68.0512C133.153 67.9743 138.075 67.5972 139.831 68.3606C136.061 69.3002 120.329 69.4814 116.656 67.6484Z" fill="#FCECD9"/>
<path d="M101.926 61.1684L102.286 61.2797C107.597 62.8747 113.873 63.2082 119.128 61.2357L119.917 59.8553L120.412 59.748L120.776 60.4262C119.724 62.5499 115.35 62.8714 113.262 63.3433C111.065 63.8399 103.909 62.0991 102.274 62.8066C102.155 62.4499 102.009 61.5788 101.926 61.1684Z" fill="#FCECD9"/>
<path d="M80.1616 59.8828L81.2623 60.1952L81.5395 60.7704L81.1923 61.2142C73.0039 63.3642 73.5989 63.2057 65.5489 61.5159C64.5607 60.7975 64.7189 61.2164 64.5742 60.3643C66.9722 60.454 68.0549 61.6484 69.6235 61.9004C74.0896 62.6177 76.4685 61.8158 80.1616 59.8828Z" fill="#FCECD9"/>
<path d="M102.379 76.2012L103.242 76.6629C103.544 78.6138 101.984 78.493 102.222 80.8635C102.405 82.6782 103.128 86.5748 102.069 87.9033C99.8112 87.4774 99.9386 85.2351 99.8968 83.4292C99.9122 82.2911 99.7046 82.769 100.318 81.8997C100.88 82.6441 100.719 84.5998 101.456 86.5188C102.057 85.4789 101.183 80.2751 101.795 78.8423C102.127 78.0638 102.282 77.0415 102.379 76.2012Z" fill="#FCECD9"/>
<path d="M143.344 62.4243C149.481 62.3013 155.278 62.8512 161.869 62.7403C152.474 64.6245 153.558 63.3628 145.096 63.1951L143.344 62.4243Z" fill="#FCECD9"/>
<path d="M240.555 62.888C241.87 63.1487 243.785 62.8287 245.095 62.4655C249.65 61.2018 253.865 61.3578 255.882 56.541C256.739 57.5619 255.641 59.3019 254.744 59.9137C251.613 62.048 243.613 63.9451 239.918 64.0118L240.555 62.888Z" fill="#FCECD9"/>
<path d="M260.738 63.4221L261.884 61.6858L261.687 61.5499C260.676 61.9941 260.083 62.5195 259.336 62.2335C260.566 60.9985 261.083 61.153 262.152 60.153C263.58 58.8191 264.942 56.7485 266.428 55.4863C264.415 61.0003 263.734 60.3134 261.28 64.395L260.738 63.4221Z" fill="#FCECD9"/>
<path d="M151.107 52.0441C154.392 51.9119 159.607 51.7171 162.799 52.2107C161.251 52.5768 159.497 52.5713 157.886 52.642C155.744 52.9642 149.213 53.2022 147.258 52.6922C148.096 52.1177 150 52.1308 151.107 52.0441Z" fill="#FCECD9"/>
<path d="M139.428 140.639C139.582 140.663 140.207 140.751 140.287 140.823C141.646 142.047 141.719 146.468 142.378 148.54C143.419 149.461 144.258 150.067 144.969 151.264L144.467 151.7C143.595 151.058 142.616 150.152 141.782 149.423L140.653 145.071C139.812 144.439 139.628 144.406 139.074 143.538C139.719 143.179 139.767 143.138 140.348 142.71C140.227 141.313 140.39 142.003 139.428 140.639Z" fill="#FCECD9"/>
<path d="M189.842 62.0217L190.219 61.9199L190.336 62.2041C185.803 63.5475 179.985 63.2333 175.17 63.1583C174.789 63.0729 174.98 63.1703 174.676 62.7599C175.932 62.4691 187.436 62.1671 189.842 62.0217Z" fill="#FCECD9"/>
<path d="M203.56 127.174C203.992 129.02 197.467 138.6 196.065 140.719C195.655 139.308 202.286 129.078 203.56 127.174Z" fill="#FCECD9"/>
<path d="M217.403 50.4887C214.62 50.5169 209.538 49.8611 206.777 49.3346C208.216 48.7509 217.209 49.5671 219.293 49.722L219.487 50.194L217.403 50.4887Z" fill="#FCECD9"/>
<path d="M92.0469 86.3926C93.0648 86.7086 92.729 86.5145 93.5529 87.1897C93.3108 87.5647 93.0685 87.9396 92.8261 88.3146C94.9084 88.2933 94.5349 88.5317 95.8524 86.8111C96.9552 87.2534 96.4543 86.9166 97.2207 88.0879L96.9032 88.2607L95.7927 87.9066L96.3503 88.4965C96.3426 89.2845 96.2778 91.2544 95.6363 91.6953C95.2365 90.6506 95.0237 89.52 94.2925 88.937C93.6378 89.3859 93.5097 89.6748 93.1292 90.3661C92.2091 88.6873 92.4438 88.1739 92.0469 86.3926Z" fill="#FCECD9"/>
<path d="M105.934 66.7732C108.446 66.1753 112.823 65.9581 115.3 66.8519C115.294 66.8552 109.66 67.7021 107.862 68.4795L107.179 68.7702L106.678 67.5937L106.087 67.3821L105.934 66.7732Z" fill="black"/>
<path d="M128.287 49.5629L128.737 49.5106L129.011 49.1371L128.072 48.3433L128.952 48.3359C130.748 48.5395 131.84 48.6226 133.645 48.6274C131.935 48.8965 131.491 48.6655 130.384 49.5995L130.571 50.6471L130.042 50.0184C130.404 51.3556 131.258 51.0635 132.523 51.0353L132.676 51.5164C130.973 51.8705 128.157 52.0433 126.566 51.3315C127.125 50.966 128.228 50.995 128.996 50.9287C128.435 50.3696 127.675 50.3948 126.732 50.1946L128.287 49.5629Z" fill="black"/>
<path d="M91.9274 72.25L92.4573 72.9124L92.2083 73.9926C90.807 79.8112 92.0567 79.8983 92.0761 85.2911C90.1274 83.5947 90.5218 74.6417 91.9274 72.25Z" fill="#FCECD9"/>
<path d="M185.168 50.8343C188.449 50.7472 193.136 50.5824 196.325 51.3001L195.985 51.6015C193.766 51.7714 186.457 52.1628 184.648 51.2379L185.168 50.8343Z" fill="#FCECD9"/>
<path d="M117.473 103.012C119.959 103.376 122.53 105.998 125.14 106.067L126.826 106.116C128.007 106.154 127.615 105.974 128.524 106.512L128.489 107.269L128.119 106.91C126.541 107.008 124.652 106.573 122.821 106.551L122.075 107.413L121.593 107.377C121.625 106.085 121.79 106.518 121.259 105.481C119.372 104.629 118.887 104.487 117.473 103.012Z" fill="black"/>
<path d="M98.7854 79.5547L99.2658 80.2112C98.7795 84.0815 98.733 87.4765 99.7652 91.2414C99.3295 91.3102 99.6228 91.2871 98.8868 91.1626C97.8707 88.3582 97.7547 82.1024 98.7854 79.5547Z" fill="#FCECD9"/>
<path d="M102.473 92.2559C103.463 92.2782 104.085 92.7963 104.645 93.4953L104.391 94.1925C103.182 94.4773 102.073 94.5074 100.845 94.552L100.822 95.236C101.093 96.6157 101.273 96.0873 100.663 96.9987L100.098 96.8274L99.7994 95.9995C100.715 93.4294 99.1015 95.0727 100.084 93.2958L101.416 93.5338C102.415 93.0746 102.011 93.4276 102.473 92.2559Z" fill="#FCECD9"/>
<path d="M110.86 93.418C111.269 93.7867 114.725 99.6526 115.497 100.809L114.819 100.81L114.399 100.865C112.927 98.4398 111.304 96.5944 109.98 94.4626L110.86 93.418Z" fill="#FCECD9"/>
<path d="M96.3843 97.6786C95.779 95.9375 94.8655 95.6541 94.8047 94.0968L96.3103 94.1133L96.8339 93.5794C96.6124 92.3253 96.6135 92.2473 96.6695 90.9713L97.1225 90.6289C99.3571 94.8229 96.3067 93.0034 96.9584 97.3307L96.3843 97.6786Z" fill="#FCECD9"/>
<path d="M149.98 103.529C154.032 105.355 153.726 110.301 152.132 113.766C151.146 111.377 153.886 108.965 150.595 104.354C150.394 104.076 150.19 103.801 149.98 103.529Z" fill="#FCECD9"/>
<path d="M104.359 78.7584C105.464 79.7221 105.427 86.2511 105.126 87.8263L104.533 87.377C104.398 88.1925 104.296 78.2326 104.359 78.7584Z" fill="#FCECD9"/>
<path d="M124.855 98.2285L125.413 98.3808L125.683 98.9521C124.923 100.566 122.66 101.262 121.082 101.769L120.562 101.22C121.049 100.209 123.789 98.7554 124.855 98.2285Z" fill="#FCECD9"/>
<path d="M111.961 64.5614C112.948 64.0989 118.227 64.5687 121.881 63.3457L122.177 63.6437C118.42 66.261 115.554 64.2578 112.237 65.2713L111.961 64.5614Z" fill="#FCECD9"/>
<path d="M159.715 64.0655C161.597 63.736 168.049 64.06 169.813 64.8388C166.848 65.1167 162.344 65.4705 159.715 64.0655Z" fill="black"/>
<path d="M149.723 69.9571C151.559 69.4756 158.298 69.3775 159.968 70.1449C157.965 70.7216 151.677 70.841 149.723 69.9571Z" fill="#FCECD9"/>
<path d="M98.7422 72.8164C99.569 72.9416 99.5975 72.9592 100.374 73.2778C100.939 74.6981 101.653 76.5988 101.057 78.1023L100.511 78.1319L100.037 76.9664L99.9179 76.6827L99.5327 76.6417C99.2362 77.6621 99.5093 77.3872 98.8784 78.0016C98.2969 75.9375 100.873 76.4308 98.7422 72.8164Z" fill="#FCECD9"/>
<path d="M136.619 143.213C137.641 144.383 138.923 146.464 138.817 148.095L138.234 148.019L137.321 146.831L137.36 146.12C136.593 146.636 136.63 146.663 135.743 146.873L135.617 146.242C136.473 144.948 136.608 144.76 136.619 143.213Z" fill="#FCECD9"/>
<path d="M79.9844 64.7136C82.0986 64.5426 89.3862 65.1061 90.9391 66.3287C86.9286 66.4367 83.8452 65.5971 79.9844 64.7136Z" fill="#FCECD9"/>
<path d="M166.591 337.171C168.602 337.123 170.22 336.032 171.403 336.127C171.285 338.123 168.125 338.595 166.438 338.91L166.591 337.171Z" fill="#FCECD9"/>
<path d="M139.906 155.11C141.167 154.994 141.398 155.061 142.627 155.208C143.452 156.095 143.167 156.026 143.216 157.641C142.575 157.655 142.217 157.635 141.583 157.599C140.804 156.737 140.168 156.226 139.906 155.11Z" fill="black"/>
<path d="M146.839 107.027C148.81 108.988 146.973 112.009 146.085 114.165C145.249 113.122 146.709 109.691 146.839 107.027Z" fill="#FCECD9"/>
<path d="M196.912 94.4927C197.476 93.9779 198.351 94.0072 198.878 94.5583C199.409 95.1097 199.402 95.9823 198.863 96.526C198.505 96.8903 197.974 97.0306 197.483 96.8922C196.989 96.7537 196.608 96.3587 196.491 95.86C196.374 95.3613 196.535 94.838 196.912 94.4927Z" fill="#FCECD9"/>
<path d="M141.069 130.002C141.451 130.168 141.77 130.446 142.123 130.702L142.147 131.412C141.471 132.139 140.786 132.858 140.093 133.569C139.796 133.774 140.021 133.646 139.335 133.732L139.703 133.628L139.211 133.084C139.71 131.473 139.943 131.331 141.069 130.002Z" fill="#FCECD9"/>
<path d="M249.786 56.5488L250.057 56.8538L249.918 57.9087C248.508 59.9951 246.945 60.2815 244.528 60.7827L244.305 60.5162L244.473 60.0772C247.424 59.2009 247.985 59.0039 249.786 56.5488Z" fill="#FCECD9"/>
<path d="M145.096 63.1937C143.212 63.1494 137.278 62.8949 135.523 62.3387C139.079 62.0556 139.687 62.5042 142.611 62.4441L143.344 62.4229L145.096 63.1937Z" fill="#FCECD9"/>
<path d="M126.731 50.1941C124.971 50.6998 124.033 50.8067 122.231 51.0462L122.532 50.9554L121.021 50.9576L121.714 51.0129L121 50.9642C122.394 49.7888 126.395 49.7159 128.287 49.5625L126.731 50.1941Z" fill="#FCECD9"/>
<path d="M96.4945 77.373C97.8112 78.6883 97.3901 82.5476 96.6918 84.1733C96.2612 82.4641 96.0104 79.0804 96.4945 77.373Z" fill="#FCECD9"/>
<path d="M138.013 129.002C138.516 129.499 138.364 129.429 138.629 130.19C138.481 131.826 138.156 132.192 137.36 133.692L136.734 132.933C136.674 131.413 137.345 130.407 138.013 129.002Z" fill="#FCECD9"/>
<path d="M90.1607 47.578C91.4151 47.4912 92.7391 47.2667 93.8197 47.8046C92.7604 48.3831 91.7681 48.233 90.5308 48.2319C89.4353 48.4688 88.6675 48.7676 87.6133 48.4472C88.5001 47.6739 88.8194 47.8438 90.1607 47.578Z" fill="#FCECD9"/>
<path d="M159.169 338.922C156.858 337.93 157.063 338.896 155.32 336.582L155.892 336.465C157.305 337.076 157.935 337.571 159.447 337.226L159.169 338.922Z" fill="#FCECD9"/>
<path d="M61.7653 52.7188L62.6613 53.4229C62.7884 54.9369 62.5138 54.8622 61.7617 56.4733C60.6273 55.7399 60.8942 56.2262 60.6094 55.1687C61.0748 54.2833 61.3684 53.6265 61.7653 52.7188Z" fill="#FCECD9"/>
<path d="M219.292 49.7227C220.555 49.8482 222.774 49.9153 223.784 50.4282C221.639 50.9643 219.929 50.7702 217.717 50.6985L217.402 50.4894L219.486 50.1946L219.292 49.7227Z" fill="black"/>
<path d="M117.621 99.8141C119.062 98.2875 119.881 98.0737 121.963 97.9082C120.696 100.094 119.932 99.9228 117.621 99.8141Z" fill="#FCECD9"/>
<path d="M143.168 142.572C144.773 143.4 147.19 143.898 148.184 144.738C145.823 145.983 144.395 144.34 143.168 142.572Z" fill="#FCECD9"/>
<path d="M234.174 67.2306C232.977 67.5503 230.971 67.7711 229.682 67.9571L229.349 67.5682L228.484 67.9919C229.857 67.0212 232.67 66.7883 234.431 66.543L234.174 67.2306Z" fill="black"/>
<path d="M212.214 113.803C211.181 115.53 210.778 116.333 209.387 117.826L208.98 117.825C209.215 116.63 210.8 114.634 211.573 113.561L212.214 113.803Z" fill="#FCECD9"/>
<path d="M164.286 67.4349C165.743 67.3646 168.672 67.0395 169.837 67.5887L169.331 68.0138C167.453 68.0135 165.23 68.1145 163.418 67.7667L164.286 67.4349Z" fill="black"/>
<path d="M94.7028 79.5293C95.8621 80.4795 95.0547 83.1887 94.8251 84.5497C93.5608 83.3524 94.307 81.0576 94.7028 79.5293Z" fill="#FCECD9"/>
<path d="M171.246 67.4033C173.355 67.1257 175.486 66.8101 177.511 67.4864C175.618 68.293 173.238 67.735 171.246 67.4033Z" fill="#FCECD9"/>
<path d="M121.883 63.3467C122.986 62.1461 123.011 61.5324 123.442 59.951L123.952 59.5332C124.324 61.4632 123.499 62.4306 122.179 63.6448L121.883 63.3467Z" fill="#FCECD9"/>
<path d="M132.462 105.213C132.838 105.334 132.584 105.231 133.146 105.666C132.475 106.559 131.853 106.592 130.666 107.119C130.461 106.964 130.166 106.598 129.98 106.389C130.574 105.549 131.221 105.61 132.462 105.213Z" fill="#FCECD9"/>
<path d="M139.613 108.059C139.685 106.811 139.599 105.705 140.216 104.658C140.737 106.183 140.382 106.894 140.583 108.381L139.613 108.059Z" fill="#FCECD9"/>
<path d="M63.9902 53.168L64.3205 53.4572C64.5157 54.4788 63.984 55.5154 63.6252 56.6333C63.3905 56.3884 63.2286 56.0079 63.0547 55.6853C63.0594 54.4305 63.3161 54.2137 63.9902 53.168Z" fill="#FCECD9"/>
<path d="M214.207 64.4475C216.305 64.3318 217.466 64.226 219.586 64.4951C217.557 65.3438 216.184 65.2948 214.207 64.4475Z" fill="black"/>
<path d="M86.9727 57.2461C87.5105 57.8228 88.5266 60.5964 89.0052 61.5693C88.4816 61.3463 88.2905 61.1812 87.8126 60.8692C87.0063 59.4196 87.0964 58.9637 86.9727 57.2461Z" fill="#FCECD9"/>
<path d="M60.2578 60.2969C62.4101 60.3712 63.3841 60.6923 65.0402 62.0823C63.2775 61.7447 61.8521 61.0805 60.2578 60.2969Z" fill="black"/>
<path d="M288.785 42.3594L289.228 43.1082L286.259 44.6281L285.977 44.0016L288.785 42.3594Z" fill="#FCECD9"/>
<path d="M109.449 68.418C110.42 68.5205 110.971 68.5992 111.925 68.797L112.129 69.6446C111.092 69.6391 110.422 69.7358 109.492 69.2788L109.449 68.418Z" fill="#FCECD9"/>
<path d="M140.191 68.1157C142.25 67.8337 143.077 67.7092 144.962 68.5111C143.056 68.7623 141.968 68.774 140.191 68.1157Z" fill="black"/>
<path d="M207.008 64.7285L207.331 65.0024C206.653 65.7662 205.39 65.8629 204.222 66.1613L203.918 65.8849C204.859 65.0365 205.643 65.0625 207.008 64.7285Z" fill="#FCECD9"/>
<path d="M209.941 64.4607C211.71 64.2377 212.007 64.1897 213.742 64.5398C212.076 65.2666 211.509 65.1219 209.941 64.4607Z" fill="black"/>
<path d="M152.082 44.5452C153.23 44.5566 154.104 44.3592 154.941 44.8531C153.526 45.2925 153.552 45.2687 152.055 45.2687L152.082 44.5452Z" fill="black"/>
<path d="M96.9609 97.3301L97.7437 98.697L97.5954 99.2209C96.7404 98.6937 96.8195 98.6186 96.3867 97.6779L96.9609 97.3301Z" fill="black"/>
<path d="M220.807 65.8242C219.653 66.2511 219.726 66.2397 218.496 66.2379L218.525 65.9065L220.217 65.4375L220.807 65.8242Z" fill="black"/>
<path d="M301.152 0C302.331 0.911369 303.203 9.72116 304.341 13.122C307.977 14.5431 314.191 15.0356 318.428 15.8268C313.843 17.0901 309.208 17.6533 304.404 19.0875C302.533 24.2972 303.045 28.6809 301.727 33.3087C300.731 31.5138 299.552 22.9054 298.424 19.2464C295.367 18.1549 287.494 17.1146 286.418 16.1817C287.176 15.5603 295.162 14.2985 297.842 13.3432L298.373 13.1521C299.984 9.15361 300.266 4.3258 301.152 0Z" fill="black"/>
<path d="M301.35 7.46875C301.812 8.06339 302.753 12.7012 303.236 14.179C305.364 15.1266 307.978 15.7095 310.252 16.3086C302.632 17.4188 302.965 18.1756 301.424 25.5903C299.71 17.938 299.886 17.9164 292.215 16.0475C299.421 14.7231 299.981 14.8359 301.35 7.46875Z" fill="#FCECD9"/>
</svg>
