<svg width="336" height="265" viewBox="0 0 336 265" fill="none" xmlns="http://www.w3.org/2000/svg">
<path d="M104.183 0.0498486C117.571 -0.70254 129.305 7.08687 127.364 21.7432C126.589 27.5921 124.183 33.3093 123.765 39.2032C123.017 49.7461 123.278 60.0729 125.654 70.3848C128.227 64.3874 130.042 58.8528 133.133 52.9053C142.108 35.6331 156.608 23.1248 174.253 15.2178C194.718 6.1584 217.953 5.62969 238.808 13.7491C257.973 21.3411 273.848 35.4532 283.638 53.5997C286.833 59.4856 289.137 65.6739 291.852 71.7979C296.962 65.3549 302.538 54.673 304.193 46.4395C304.968 42.5868 300.028 30.3798 308.838 29.9922C315.928 29.6803 325.423 37.5686 330.933 41.5391C332.688 42.8046 335.713 46.1262 335.553 48.6172C335.032 53.8839 326.273 55.3373 322.883 58.2676C319.993 60.7621 317.303 64.753 315.658 67.9815C309.748 81.0829 301.123 96.1083 296.413 109.575C288.928 130.952 286.368 143.452 269.358 160.392C261.298 168.357 251.723 174.617 241.193 178.802C237.929 180.132 225.645 183.357 224.608 184.337C224.408 187.552 227.208 190.982 229.023 193.757C229.258 194.192 229.483 194.632 229.708 195.072C232.538 200.772 232.558 207.557 234.273 213.622C235.483 217.852 238.768 225.352 239.633 229.252C242.188 240.762 214.759 239.707 208.523 237.467C205.543 236.392 200.383 233.642 197.668 232.142C199.033 240.252 202.683 247.762 203.818 255.807C204.028 257.267 203.548 258.907 202.403 259.862C198.368 263.217 185.923 264.917 180.893 264.782C175.422 264.637 163.488 261.557 159.748 257.472C159.153 256.822 158.218 255.142 158.413 254.242C160.313 245.432 164.018 236.527 166.458 227.777C167.508 223.998 168.508 219.552 169.518 216.112C170.153 213.932 174.847 210.437 175.683 206.872C177.173 200.512 177.283 193.462 177.683 186.972C170.093 180.037 162.823 179.057 153.628 174.737C145.851 171.062 138.426 166.682 131.449 161.652C108.141 144.637 88.465 116.887 63.58 105.265C56.1116 101.843 48.1861 99.523 40.0517 98.377C29.6367 96.948 13.7838 99.7001 5.73627 92.8116C-7.60175 81.3935 5.37789 61.1437 13.8173 51.5313C34.7659 27.6723 72.3196 2.71734 104.183 0.0498486ZM189.386 187.398C188.246 192.794 186.852 203.848 189.606 208.428C194.126 215.948 194.936 220.108 197.286 228.303C198.251 225.918 199.216 223.723 199.861 221.229C202.786 208.479 204.261 199.528 208.676 187.123L189.386 187.398ZM268.505 85.9541C264.51 52.7903 235.025 28.3908 201.695 31.0381C164.84 35.2336 141.218 64.3349 145.036 101.635C146.485 115.803 153.106 128.478 164.391 137.318C168.611 140.673 173.32 143.358 178.36 145.278C185.73 142.423 186.74 142.413 193.495 146.988C198 146.413 200.18 146.754 204.585 146.634C208.12 146.539 209.22 145.544 213.045 145.858C215.28 147.313 217.075 148.469 219.185 150.144C234.175 148.359 246.946 141.784 256.395 129.799C266.065 117.359 270.42 101.596 268.505 85.9541Z" fill="black"/>
<path d="M99.8855 8.51173C130.136 4.63823 119.667 30.0867 107.49 43.8417C89.5355 64.1217 56.183 87.6582 28.7695 89.8557C1.98999 92.0142 3.54047 76.1057 16.5685 60.0067C34.9585 37.2822 70.8905 12.4287 99.8855 8.51173Z" fill="white"/>
<path d="M58.2326 32.1679C67.0711 21.8264 95.6257 9.41537 109.792 12.4279C114.93 13.5209 116.758 19.0179 114.64 23.6514C102.648 49.8879 74.0871 68.0779 48.7196 80.0384C41.0251 83.6664 24.6437 88.2769 16.0812 85.4669C1.61615 79.3074 28.0342 50.7649 34.3792 49.3149C35.7237 47.6034 36.5176 46.3039 38.3926 45.1909L38.7917 45.8494L38.8702 44.8554L39.6342 44.6674C39.1687 46.8169 36.4991 48.4659 34.7301 49.7884C32.3941 53.9379 17.0127 70.4374 21.2062 74.5444C22.7502 73.2629 25.0727 69.2844 26.4637 67.4314C30.9597 61.4444 38.5827 54.1389 45.1537 50.6909L45.8261 50.3424C42.3771 55.2654 30.6122 66.0629 31.4532 72.0064L32.1481 72.0589C35.5281 69.5189 37.7296 65.5739 40.7236 62.8864C46.7576 57.4684 53.6416 51.8409 60.2316 47.1359C65.2946 43.5269 70.5422 40.1849 75.9532 37.1229C78.3882 35.7724 88.3672 31.4569 89.4102 30.3844L88.9627 29.8734C83.4222 29.1689 71.3332 35.5639 65.1252 37.2889C70.9147 30.8229 81.2091 25.4869 89.5206 23.2064C91.2791 22.7239 96.5976 21.6674 97.3836 20.4609C90.3911 16.6874 65.1881 28.6554 58.2326 32.1679Z" fill="black"/>
<path d="M82.426 40.7988C82.8085 40.9088 82.5285 40.7888 83.4235 41.4208C81.9425 42.9003 75.9665 46.0628 73.8435 47.2948C62.8305 53.6858 53.92 61.3863 44.429 69.8303C43.6195 69.8543 44.0025 69.9708 43.3125 69.3843C44.0365 67.3853 46.477 64.5958 47.9415 62.9523C57.0905 52.6838 69.4555 45.1688 82.426 40.7988Z" fill="white"/>
<path d="M104.697 59.0215C105.341 59.4335 105.894 59.733 106.027 60.581C107.805 71.8675 110.457 83.0115 114.698 93.676C118.98 104.444 127.36 121.762 136.645 129.092C134.429 124.592 131.159 119.512 129.036 115.222C123.631 104.307 112.697 77.184 114.828 65.915L115.423 66.0365C115.989 67.234 119.609 82.7855 120.585 85.8285C129.724 114.314 143.356 138.567 169.908 153.322L174.763 155.867C173.758 159.412 172.708 161.902 171.293 165.322C141.437 156.687 116.099 122.717 95.5549 101.486C88.1289 93.8125 81.2969 88.8275 72.6289 82.7855C80.1724 77.2 87.6949 72.0965 95.3539 66.3055C101.071 77.1035 103.993 87.136 111.249 97.893C110.331 89.266 100.112 68.282 104.697 59.0215Z" fill="white"/>
<path d="M145.598 141.648C148.845 142.563 157.185 149.053 158.345 152.158C154.19 151.193 146.36 146.093 145.598 141.648Z" fill="black"/>
<path d="M203.514 17.0625C220.744 16.145 237.759 21.238 251.654 31.472C304.664 70.6215 290.894 159.163 222.879 168.608C222.349 166.018 221.919 163.249 221.464 160.629C252.904 155.164 274.894 131.758 278.119 99.9735C279.114 84.639 276.429 71.402 268.664 57.996C258.999 41.299 243.079 29.1395 224.429 24.2065C206.279 19.5865 187.039 22.3185 170.894 31.808C155.839 40.6895 144.531 54.7515 139.09 71.364C137.327 76.7135 136.299 82.3715 134.874 87.881C132.232 48.819 166.479 19.808 203.514 17.0625Z" fill="white"/>
<path d="M260.486 145.229L261.316 145.624L261.116 146.818C258.931 149.998 255.831 152.309 252.671 154.439C252.041 153.879 252.261 154.064 251.926 153.164C252.916 150.374 258.031 147.039 260.486 145.229Z" fill="black"/>
<path d="M173.66 229.182C177.395 229.277 187.675 228.532 189.425 230.902C191.39 233.557 194.76 250.787 194.585 253.762L194.065 253.972C190.505 250.002 189.075 240.562 185.755 234.957C185.425 240.667 187.6 253.182 185.485 256.832L184.615 256.997C182.295 255.207 182.29 248.827 182.02 245.837L180.92 239.342C179.495 243.222 177.995 255.212 176.345 256.642L175.43 256.517C173.595 252.962 176.48 238.337 176.17 232.722C173.88 236.922 169.42 251.227 167.345 252.707C165.815 249.397 172.065 233.037 173.66 229.182Z" fill="white"/>
<path d="M210.943 207.297C215.648 207.622 220.528 207.577 225.258 207.607C226.263 211.567 230.713 225.087 230.213 227.927C226.538 226.097 225.938 214.622 223.078 212.687C220.903 216.747 226.448 229.187 222.483 231.702L221.588 231.402C220.343 229.307 220.308 226.782 220.008 224.287C219.448 219.947 219.028 217.757 217.933 213.527C216.793 217.867 216.548 229.402 214.583 231.272L214.018 231.157C212.588 228.122 213.778 215.662 213.643 210.912C210.708 216.512 209.783 222.897 207.083 227.072L206.533 226.962C206.258 221.882 209.323 212.307 210.943 207.297Z" fill="white"/>
<path d="M61.2734 91.469C61.6879 91.424 63.0604 91.255 63.4594 91.36C87.0789 97.564 104.723 117.603 120.448 135.123C124.082 139.168 127.559 142.258 130.913 146.088C124.721 145.048 105.723 123.513 99.7969 118.248C91.1639 110.572 83.6784 103.314 72.9949 97.9335C70.5914 96.7225 62.8334 93.0965 61.2734 91.469Z" fill="white"/>
<path d="M184.766 151.527C186.001 151.892 185.906 151.877 186.736 152.877C187.496 157.892 182.336 172.107 180.136 177.032L178.676 176.732L178.076 175.597C177.891 170.372 181.986 155.892 184.766 151.527Z" fill="white"/>
<path d="M210.506 153.617C215.296 156.102 216.406 174.967 214.541 179.412C211.596 175.797 207.806 157.292 210.506 153.617Z" fill="white"/>
<path d="M311.56 46.9824C313.89 47.9654 315.365 49.6369 317.155 51.3824C314.57 55.3469 312.055 59.3564 309.61 63.4084C308.875 64.4129 309.145 64.0999 308.12 64.8549C306.655 64.3309 307.34 64.7019 306.255 63.3464C305.9 60.5159 310.3 51.1189 311.56 46.9824Z" fill="white"/>
<path d="M201.065 154.652C202.485 155.547 202.9 155.512 203.43 157.332C204.75 161.847 205.515 175.867 203.56 179.537C199.655 176.837 199.535 159.042 201.065 154.652Z" fill="white"/>
<path d="M192.546 154.412C193.531 154.712 193.536 154.752 194.461 155.227C195.991 159.452 193.086 174.337 191.806 179.052C190.521 178.787 191.121 179.027 190.096 178.102C188.376 172.337 190.896 160.162 192.546 154.412Z" fill="white"/>
<path d="M302.33 69.5312C304 70.0487 305.08 70.5998 305.725 72.2313C302.275 78.1433 299.605 83.0142 296.56 89.1432L295.545 90.6203L294.915 90.5268C294.33 88.5303 294.575 85.1608 294.62 82.9608C297.36 78.7333 299.88 73.9633 302.33 69.5312Z" fill="white"/>
<path d="M179.953 215.848C183.243 216.003 188.113 217.708 187.433 221.763C185.863 222.983 186.253 222.593 183.878 222.768H183.398L182.603 222.753L181.768 222.748C179.088 222.708 175.698 222.838 176.198 219.298C177.663 217.368 177.923 217.268 179.953 215.848Z" fill="white"/>
<path d="M310.785 37.241C314.46 37.1545 325.585 44.551 326.895 48.019C322.47 47.89 311.55 42.007 310.785 37.241Z" fill="white"/>
<path d="M214.704 195.898C218.479 195.548 221.379 195.958 223.489 199.478L223.244 200.383L222.214 200.938C219.524 200.973 214.084 201.798 212.539 199.638C212.629 197.993 213.609 197.203 214.704 195.898Z" fill="white"/>
</svg>
